<?xml version="1.0" encoding="utf-8"?>
<!-- Generator: Adobe Illustrator 27.5.0, SVG Export Plug-In . SVG Version: 6.00 Build 0)  -->
<svg version="1.1" xmlns="http://www.w3.org/2000/svg" xmlns:xlink="http://www.w3.org/1999/xlink" x="0px" y="0px"
	 viewBox="0 0 800 800" style="enable-background:new 0 0 800 800;" xml:space="preserve">
<g id="Background">
	<rect style="fill-rule:evenodd;clip-rule:evenodd;fill:#BFC9D0;" width="800" height="800"/>
</g>
<g id="Objects">
	<path style="fill-rule:evenodd;clip-rule:evenodd;fill:none;stroke:#E76541;stroke-linecap:round;stroke-miterlimit:10;" d="
		M351.454,366.913"/>
	<path style="fill-rule:evenodd;clip-rule:evenodd;fill:#D0D1D2;" d="M301.082,354.114c-0.366,0-0.661-0.296-0.661-0.661
		c0-0.365,0.294-0.661,0.661-0.661"/>
	<g>
		<g>
			<g>
				<path style="fill-rule:evenodd;clip-rule:evenodd;fill:#819096;" d="M301.753,762.396c0.293-0.002,0.563-0.08,0.805-0.233
					c0.248-0.153,0.441-0.388,0.588-0.708c0.147-0.321,0.217-0.719,0.217-1.193c0-0.451-0.07-0.836-0.217-1.157
					c-0.146-0.324-0.344-0.573-0.593-0.741c-0.245-0.169-0.511-0.253-0.8-0.256v-1.213c0.274,0.037,0.516,0.109,0.728,0.216
					c0.335,0.166,0.658,0.425,0.975,0.768v-2.486c0-0.346,0.068-0.607,0.208-0.784c0.136-0.179,0.334-0.264,0.588-0.264
					c0.255,0,0.452,0.081,0.589,0.243c0.14,0.164,0.209,0.402,0.209,0.719v7.428c0,0.321-0.074,0.563-0.223,0.721
					c-0.148,0.162-0.341,0.241-0.575,0.241c-0.23,0-0.421-0.079-0.569-0.249c-0.15-0.166-0.227-0.404-0.227-0.713v-0.168
					c-0.227,0.262-0.449,0.471-0.669,0.633c-0.22,0.162-0.456,0.287-0.716,0.371c-0.103,0.033-0.209,0.061-0.318,0.08V762.396z
					M300.144,760.262c0,0.457,0.072,0.844,0.214,1.165c0.143,0.321,0.337,0.561,0.582,0.724c0.245,0.164,0.515,0.246,0.809,0.246
					h0.005v1.254c-0.166,0.031-0.34,0.046-0.523,0.046c-0.402,0-0.775-0.085-1.119-0.255c-0.344-0.17-0.641-0.414-0.892-0.732
					c-0.252-0.313-0.442-0.69-0.571-1.116c-0.13-0.428-0.195-0.892-0.195-1.39c0-1.051,0.258-1.871,0.772-2.46
					c0.515-0.588,1.192-0.882,2.029-0.882c0.178,0,0.344,0.01,0.5,0.033v1.213h-0.018c-0.309,0-0.585,0.087-0.828,0.262
					c-0.24,0.172-0.43,0.428-0.563,0.754C300.211,759.447,300.144,759.831,300.144,760.262z"/>
				<path style="fill-rule:evenodd;clip-rule:evenodd;fill:#819096;" d="M309.673,759.731h1.526
					c-0.04-0.576-0.196-1.008-0.467-1.293c-0.268-0.284-0.622-0.428-1.06-0.43v-1.171h0.053c0.658,0,1.223,0.136,1.69,0.417
					c0.474,0.277,0.827,0.635,1.061,1.074c0.234,0.44,0.35,0.891,0.35,1.347c0,0.421-0.122,0.7-0.363,0.823
					c-0.244,0.126-0.584,0.188-1.025,0.188h-1.766V759.731L309.673,759.731z M309.673,763.691v-1.115
					c0.041,0,0.084,0.002,0.127,0.002c0.2,0,0.386-0.021,0.552-0.068c0.167-0.044,0.325-0.123,0.483-0.225
					c0.157-0.099,0.302-0.207,0.432-0.322c0.133-0.115,0.303-0.271,0.512-0.467c0.088-0.074,0.211-0.113,0.37-0.113
					c0.174,0,0.313,0.047,0.421,0.143c0.106,0.094,0.16,0.228,0.16,0.399c0,0.153-0.061,0.329-0.178,0.536
					c-0.121,0.203-0.301,0.4-0.543,0.586c-0.238,0.186-0.541,0.34-0.906,0.467c-0.363,0.119-0.781,0.183-1.256,0.183
					C309.788,763.696,309.729,763.694,309.673,763.691z M308.147,759.731h1.525v0.955h-1.525c0.002,0.385,0.079,0.719,0.23,1.012
					c0.149,0.293,0.35,0.512,0.6,0.658c0.211,0.13,0.443,0.202,0.695,0.221v1.115c-0.998-0.031-1.779-0.338-2.349-0.922
					c-0.601-0.615-0.901-1.453-0.901-2.508c0-0.498,0.074-0.961,0.224-1.387c0.148-0.424,0.364-0.793,0.647-1.096
					c0.285-0.303,0.633-0.536,1.05-0.701c0.4-0.155,0.843-0.234,1.329-0.241v1.171h-0.004c-0.419,0-0.765,0.144-1.032,0.434
					C308.366,758.731,308.204,759.161,308.147,759.731z"/>
				<path style="fill-rule:evenodd;clip-rule:evenodd;fill:#819096;" d="M319.67,761.496c0,0.462-0.112,0.859-0.339,1.19
					c-0.227,0.333-0.561,0.585-1.002,0.755c-0.442,0.17-0.98,0.255-1.613,0.255c-0.605,0-1.123-0.093-1.556-0.276
					c-0.434-0.184-0.749-0.42-0.958-0.695c-0.203-0.277-0.309-0.557-0.309-0.836c0-0.185,0.066-0.344,0.199-0.475
					c0.132-0.133,0.297-0.199,0.5-0.199c0.176,0,0.313,0.045,0.408,0.133c0.094,0.082,0.184,0.207,0.271,0.361
					c0.172,0.301,0.377,0.525,0.617,0.67c0.244,0.15,0.57,0.225,0.986,0.225c0.337,0,0.612-0.076,0.83-0.225
					c0.215-0.15,0.323-0.319,0.323-0.514c0-0.297-0.113-0.513-0.336-0.65c-0.226-0.133-0.593-0.266-1.109-0.388
					c-0.579-0.144-1.052-0.291-1.415-0.452c-0.361-0.159-0.652-0.367-0.871-0.626c-0.218-0.261-0.328-0.577-0.328-0.956
					c0-0.337,0.1-0.657,0.303-0.959c0.201-0.299,0.498-0.537,0.891-0.717c0.393-0.18,0.867-0.269,1.421-0.269
					c0.436,0,0.827,0.045,1.175,0.135c0.349,0.093,0.639,0.212,0.872,0.365c0.232,0.153,0.408,0.32,0.529,0.505
					c0.122,0.188,0.183,0.367,0.183,0.544c0,0.192-0.066,0.352-0.193,0.474c-0.131,0.121-0.314,0.185-0.553,0.185
					c-0.174,0-0.32-0.049-0.441-0.146c-0.121-0.098-0.26-0.246-0.417-0.445c-0.126-0.162-0.276-0.298-0.448-0.396
					c-0.174-0.098-0.408-0.148-0.706-0.148c-0.304,0-0.556,0.069-0.757,0.2c-0.201,0.126-0.303,0.288-0.303,0.478
					c0,0.182,0.072,0.324,0.224,0.438c0.148,0.115,0.345,0.209,0.597,0.283c0.251,0.072,0.596,0.162,1.037,0.269
					c0.521,0.128,0.949,0.278,1.279,0.457c0.333,0.176,0.582,0.385,0.754,0.627C319.585,760.91,319.67,761.185,319.67,761.496z"/>
				<path style="fill-rule:evenodd;clip-rule:evenodd;fill:#819096;" d="M322.778,757.803v4.87c0,0.337-0.08,0.593-0.239,0.765
					c-0.159,0.174-0.364,0.259-0.61,0.259c-0.248,0-0.448-0.087-0.602-0.266c-0.155-0.177-0.23-0.431-0.23-0.758v-4.819
					c0-0.331,0.074-0.586,0.23-0.75c0.154-0.17,0.354-0.255,0.602-0.255c0.246,0,0.449,0.085,0.61,0.255
					C322.698,757.268,322.778,757.502,322.778,757.803L322.778,757.803z M321.946,756.066c-0.234,0-0.435-0.074-0.6-0.217
					c-0.168-0.143-0.25-0.348-0.25-0.61c0-0.239,0.084-0.438,0.256-0.591c0.17-0.155,0.366-0.232,0.594-0.232
					c0.219,0,0.41,0.07,0.58,0.21c0.168,0.143,0.252,0.347,0.252,0.613c0,0.257-0.082,0.462-0.246,0.608
					C322.368,755.99,322.173,756.066,321.946,756.066z"/>
				<path style="fill-rule:evenodd;clip-rule:evenodd;fill:#819096;" d="M327.453,762.289c0.274-0.002,0.534-0.078,0.776-0.223
					c0.249-0.154,0.452-0.378,0.607-0.681c0.158-0.302,0.236-0.667,0.236-1.099c0-0.689-0.15-1.223-0.455-1.606
					c-0.295-0.379-0.685-0.566-1.165-0.574v-1.203c0.259,0.044,0.494,0.12,0.708,0.231c0.348,0.183,0.672,0.471,0.975,0.859v-0.228
					c0-0.289,0.071-0.516,0.215-0.674c0.143-0.164,0.328-0.243,0.553-0.243c0.327,0,0.541,0.108,0.649,0.317
					c0.106,0.211,0.16,0.516,0.16,0.916v4.893c0,0.559-0.058,1.041-0.179,1.443c-0.117,0.405-0.309,0.736-0.574,1
					c-0.262,0.262-0.607,0.461-1.032,0.586c-0.401,0.119-0.893,0.182-1.475,0.19v-1.172c0.369-0.012,0.661-0.07,0.875-0.181
					c0.243-0.12,0.41-0.29,0.509-0.509c0.096-0.219,0.149-0.453,0.167-0.699c0.016-0.248,0.029-0.648,0.04-1.199
					c-0.262,0.359-0.56,0.637-0.902,0.824c-0.205,0.115-0.434,0.195-0.689,0.24V762.289z M325.833,760.219
					c0,0.682,0.148,1.198,0.448,1.547c0.3,0.349,0.683,0.523,1.157,0.523h0.015v1.209c-0.163,0.029-0.337,0.045-0.521,0.045
					c-0.564,0-1.057-0.145-1.48-0.434c-0.42-0.287-0.744-0.689-0.969-1.209c-0.229-0.518-0.34-1.117-0.34-1.797
					c0-0.503,0.068-0.96,0.206-1.367c0.138-0.408,0.333-0.752,0.588-1.031c0.257-0.282,0.55-0.49,0.884-0.634
					c0.332-0.138,0.699-0.21,1.098-0.21c0.19,0,0.367,0.015,0.534,0.043v1.203h-0.027c-0.481,0-0.868,0.182-1.157,0.549
					C325.977,759.023,325.833,759.541,325.833,760.219L325.833,760.219z M327.453,765.021v1.172l-0.114,0.002
					c-0.578,0-1.1-0.082-1.556-0.244c-0.456-0.163-0.808-0.373-1.055-0.629c-0.245-0.258-0.368-0.52-0.368-0.794
					c0-0.206,0.068-0.372,0.209-0.501c0.139-0.133,0.307-0.195,0.504-0.195c0.248,0,0.464,0.108,0.648,0.324
					c0.091,0.112,0.184,0.227,0.282,0.338c0.097,0.111,0.203,0.209,0.321,0.293c0.116,0.079,0.258,0.139,0.422,0.176
					c0.163,0.039,0.353,0.06,0.566,0.06L327.453,765.021z"/>
				<path style="fill-rule:evenodd;clip-rule:evenodd;fill:#819096;" d="M333.947,757.779v0.205c0.295-0.393,0.619-0.68,0.972-0.859
					c0.351-0.184,0.755-0.276,1.212-0.276c0.444,0,0.841,0.097,1.19,0.288c0.348,0.195,0.609,0.469,0.784,0.822
					c0.108,0.207,0.183,0.43,0.214,0.664c0.034,0.24,0.051,0.545,0.051,0.914v3.136c0,0.337-0.076,0.593-0.23,0.765
					c-0.155,0.174-0.356,0.259-0.603,0.259c-0.251,0-0.454-0.087-0.609-0.266c-0.156-0.177-0.234-0.431-0.234-0.758v-2.807
					c0-0.554-0.077-0.981-0.232-1.276c-0.153-0.293-0.462-0.439-0.922-0.439c-0.301,0-0.574,0.091-0.82,0.268
					c-0.248,0.178-0.428,0.423-0.543,0.736c-0.081,0.254-0.124,0.724-0.124,1.408v2.11c0,0.339-0.079,0.599-0.237,0.768
					c-0.159,0.17-0.364,0.255-0.613,0.255c-0.243,0-0.441-0.087-0.599-0.266c-0.157-0.177-0.233-0.431-0.233-0.758v-4.87
					c0-0.318,0.068-0.559,0.209-0.717c0.14-0.158,0.331-0.237,0.572-0.237c0.148,0,0.283,0.033,0.402,0.105
					c0.118,0.071,0.215,0.174,0.287,0.314C333.911,757.407,333.947,757.576,333.947,757.779z"/>
				<path style="fill-rule:evenodd;clip-rule:evenodd;fill:#819096;" d="M342.981,759.731h1.528
					c-0.043-0.576-0.199-1.008-0.468-1.293c-0.268-0.284-0.623-0.428-1.061-0.43v-1.171h0.054c0.656,0,1.222,0.136,1.692,0.417
					c0.471,0.277,0.823,0.635,1.059,1.074c0.233,0.44,0.351,0.891,0.351,1.347c0,0.421-0.122,0.7-0.364,0.823
					c-0.242,0.126-0.582,0.188-1.025,0.188h-1.767V759.731L342.981,759.731z M342.981,763.691v-1.115
					c0.042,0,0.084,0.002,0.126,0.002c0.203,0,0.386-0.021,0.552-0.068c0.168-0.044,0.327-0.123,0.486-0.225
					c0.156-0.099,0.301-0.207,0.432-0.322c0.131-0.115,0.303-0.271,0.51-0.467c0.088-0.074,0.211-0.113,0.371-0.113
					c0.174,0,0.311,0.047,0.42,0.143c0.105,0.094,0.162,0.228,0.162,0.399c0,0.153-0.061,0.329-0.182,0.536
					c-0.118,0.203-0.299,0.4-0.54,0.586c-0.237,0.186-0.541,0.34-0.905,0.467c-0.363,0.119-0.785,0.183-1.256,0.183
					C343.099,763.696,343.04,763.694,342.981,763.691z M341.455,759.731h1.526v0.955h-1.526c0.003,0.385,0.079,0.719,0.23,1.012
					c0.151,0.293,0.352,0.512,0.598,0.658c0.214,0.13,0.448,0.202,0.699,0.221v1.115c-0.997-0.031-1.778-0.338-2.35-0.922
					c-0.598-0.615-0.898-1.453-0.898-2.508c0-0.498,0.076-0.961,0.223-1.387c0.146-0.424,0.363-0.793,0.648-1.096
					c0.283-0.303,0.63-0.536,1.047-0.701c0.401-0.155,0.843-0.234,1.33-0.241v1.171h-0.004c-0.418,0-0.764,0.144-1.033,0.434
					C341.677,758.731,341.513,759.161,341.455,759.731z"/>
				<path style="fill-rule:evenodd;clip-rule:evenodd;fill:#819096;" d="M350.469,762.396c0.294-0.002,0.562-0.08,0.805-0.233
					c0.243-0.153,0.44-0.388,0.586-0.708c0.146-0.321,0.22-0.719,0.22-1.193c0-0.451-0.073-0.836-0.22-1.157
					c-0.147-0.324-0.343-0.573-0.593-0.741c-0.242-0.168-0.509-0.25-0.798-0.256v-1.213c0.273,0.039,0.517,0.109,0.727,0.216
					c0.333,0.166,0.657,0.425,0.976,0.768v-2.486c0-0.346,0.069-0.607,0.207-0.784c0.138-0.179,0.334-0.264,0.59-0.264
					c0.254,0,0.449,0.081,0.588,0.243c0.137,0.164,0.206,0.402,0.206,0.719v7.428c0,0.321-0.073,0.563-0.222,0.721
					c-0.146,0.162-0.339,0.241-0.572,0.241c-0.232,0-0.422-0.079-0.572-0.249c-0.15-0.166-0.225-0.404-0.225-0.713v-0.168
					c-0.228,0.262-0.449,0.471-0.672,0.633c-0.219,0.162-0.458,0.287-0.712,0.371c-0.102,0.033-0.208,0.061-0.318,0.08V762.396z
					 M348.858,760.262c0,0.457,0.071,0.844,0.213,1.165c0.143,0.321,0.336,0.561,0.582,0.724c0.248,0.164,0.518,0.246,0.809,0.246
					h0.007v1.254c-0.167,0.031-0.341,0.046-0.524,0.046c-0.404,0-0.778-0.085-1.121-0.255c-0.343-0.17-0.64-0.414-0.891-0.732
					c-0.252-0.313-0.441-0.69-0.57-1.116c-0.13-0.428-0.195-0.892-0.195-1.39c0-1.051,0.256-1.871,0.771-2.46
					c0.514-0.588,1.191-0.882,2.03-0.882c0.177,0,0.345,0.01,0.5,0.033v1.213h-0.02c-0.308,0-0.584,0.087-0.827,0.262
					c-0.242,0.172-0.431,0.428-0.565,0.754C348.923,759.447,348.858,759.831,348.858,760.262z"/>
				<path style="fill-rule:evenodd;clip-rule:evenodd;fill:#819096;" d="M361.856,762.394l0.055,0.002
					c0.424,0,0.789-0.188,1.097-0.555c0.308-0.367,0.458-0.894,0.458-1.58c0-0.447-0.063-0.828-0.189-1.15
					c-0.129-0.318-0.309-0.57-0.543-0.742c-0.234-0.175-0.508-0.262-0.822-0.262l-0.055,0.002v-1.213
					c0.157-0.023,0.322-0.035,0.5-0.035c0.56,0,1.049,0.135,1.472,0.397c0.422,0.264,0.749,0.649,0.979,1.156
					c0.234,0.498,0.35,1.099,0.35,1.788c0,0.516-0.064,0.979-0.194,1.406c-0.13,0.424-0.318,0.795-0.565,1.105
					c-0.247,0.313-0.546,0.557-0.897,0.727c-0.351,0.17-0.738,0.255-1.162,0.255c-0.168,0-0.327-0.013-0.483-0.04V762.394z
					 M360.247,760.31c0,0.67,0.153,1.186,0.459,1.544c0.295,0.347,0.678,0.528,1.15,0.54v1.262c-0.086-0.012-0.168-0.029-0.25-0.053
					c-0.227-0.06-0.422-0.143-0.582-0.245c-0.16-0.1-0.297-0.202-0.412-0.312c-0.111-0.103-0.262-0.266-0.444-0.48v0.168
					c0,0.316-0.075,0.557-0.23,0.721c-0.151,0.162-0.346,0.241-0.58,0.241c-0.238,0-0.43-0.079-0.572-0.241
					c-0.141-0.164-0.213-0.404-0.213-0.721v-7.357c0-0.336,0.071-0.596,0.207-0.771c0.141-0.176,0.331-0.261,0.578-0.261
					c0.26,0,0.458,0.081,0.598,0.251c0.141,0.166,0.212,0.402,0.212,0.711v2.572c0.315-0.33,0.638-0.582,0.967-0.754
					c0.21-0.113,0.45-0.19,0.722-0.229v1.213c-0.297,0.008-0.564,0.096-0.801,0.26c-0.25,0.172-0.45,0.428-0.595,0.76
					C360.317,759.461,360.247,759.854,360.247,760.31z"/>
				<path style="fill-rule:evenodd;clip-rule:evenodd;fill:#819096;" d="M367.897,763.906l0.154-0.377l-2.074-5.219
					c-0.127-0.303-0.192-0.519-0.192-0.652c0-0.143,0.038-0.281,0.114-0.404c0.072-0.124,0.174-0.221,0.305-0.293
					c0.127-0.074,0.264-0.112,0.403-0.112c0.243,0,0.425,0.076,0.548,0.23c0.124,0.156,0.234,0.377,0.328,0.665l1.426,4.145
					l1.35-3.855c0.107-0.314,0.206-0.557,0.289-0.736c0.088-0.176,0.181-0.295,0.277-0.353c0.096-0.065,0.232-0.095,0.41-0.095
					c0.127,0,0.248,0.033,0.365,0.105c0.119,0.066,0.209,0.157,0.272,0.271c0.064,0.115,0.096,0.237,0.096,0.365
					c-0.016,0.074-0.043,0.188-0.078,0.33c-0.037,0.146-0.084,0.295-0.138,0.439l-2.196,5.75c-0.19,0.509-0.373,0.901-0.557,1.189
					c-0.178,0.291-0.418,0.512-0.717,0.665c-0.299,0.153-0.7,0.231-1.206,0.231c-0.491,0-0.864-0.055-1.11-0.161
					c-0.246-0.107-0.37-0.301-0.37-0.585c0-0.195,0.059-0.342,0.175-0.447c0.119-0.109,0.291-0.158,0.523-0.158
					c0.089,0,0.178,0.012,0.266,0.038c0.105,0.023,0.199,0.036,0.277,0.036c0.193,0,0.344-0.029,0.455-0.088
					c0.111-0.054,0.211-0.156,0.299-0.299C367.679,764.391,367.782,764.182,367.897,763.906z"/>
			</g>
			<g>
				<path style="fill-rule:evenodd;clip-rule:evenodd;fill:#819096;" d="M405.781,754.716h0.502v-0.631
					c0-0.659,0.084-1.181,0.252-1.565c0.162-0.39,0.447-0.672,0.846-0.849c0.398-0.178,0.941-0.267,1.639-0.267
					c1.223,0,1.84,0.3,1.84,0.901c0,0.193-0.068,0.358-0.196,0.5c-0.127,0.138-0.277,0.211-0.455,0.211
					c-0.081,0-0.224-0.017-0.423-0.051c-0.198-0.029-0.367-0.043-0.507-0.043c-0.381,0-0.624,0.111-0.73,0.332
					c-0.109,0.227-0.163,0.545-0.163,0.958v0.502h0.516c0.803,0,1.203,0.244,1.203,0.724c0,0.342-0.107,0.563-0.319,0.654
					c-0.214,0.092-0.507,0.143-0.884,0.143h-0.516v5.562c0,0.416-0.102,0.732-0.296,0.953c-0.196,0.219-0.453,0.324-0.769,0.324
					c-0.295,0-0.544-0.105-0.741-0.324c-0.197-0.221-0.296-0.537-0.296-0.953v-5.562h-0.577c-0.314,0-0.552-0.074-0.725-0.219
					c-0.168-0.14-0.255-0.322-0.255-0.548C404.727,754.967,405.08,754.716,405.781,754.716z"/>
				<path style="fill-rule:evenodd;clip-rule:evenodd;fill:#819096;" d="M413.29,760.042v1.757c0,0.426-0.1,0.748-0.3,0.96
					s-0.453,0.317-0.765,0.317c-0.297,0-0.549-0.105-0.744-0.322c-0.195-0.216-0.294-0.532-0.294-0.955v-5.85
					c0-0.947,0.34-1.418,1.022-1.418c0.35,0,0.602,0.111,0.757,0.331c0.155,0.218,0.238,0.546,0.254,0.977
					c0.252-0.432,0.51-0.76,0.773-0.977c0.265-0.22,0.617-0.331,1.06-0.331c0.44,0,0.87,0.111,1.284,0.331
					c0.419,0.218,0.624,0.513,0.624,0.875c0,0.262-0.086,0.47-0.265,0.638c-0.179,0.166-0.365,0.25-0.576,0.25
					c-0.075,0-0.26-0.049-0.556-0.141c-0.296-0.098-0.556-0.145-0.784-0.145c-0.306,0-0.558,0.083-0.752,0.246
					c-0.195,0.159-0.347,0.398-0.456,0.717c-0.105,0.318-0.18,0.699-0.223,1.137C413.309,758.877,413.29,759.414,413.29,760.042z"/>
				<path style="fill-rule:evenodd;clip-rule:evenodd;fill:#819096;" d="M421.378,758.127h1.905
					c-0.055-0.717-0.245-1.256-0.58-1.612c-0.336-0.356-0.778-0.534-1.325-0.536v-1.461h0.066c0.82,0,1.522,0.17,2.108,0.52
					c0.59,0.344,1.031,0.793,1.324,1.342c0.291,0.549,0.439,1.109,0.439,1.68c0,0.525-0.151,0.873-0.455,1.028
					c-0.303,0.157-0.727,0.234-1.279,0.234h-2.204V758.127L421.378,758.127z M421.378,763.072v-1.395
					c0.052,0.003,0.104,0.006,0.158,0.006c0.252,0,0.479-0.029,0.689-0.088c0.206-0.057,0.41-0.153,0.602-0.279
					c0.196-0.125,0.377-0.26,0.542-0.402c0.163-0.144,0.379-0.34,0.636-0.583c0.109-0.095,0.268-0.144,0.465-0.144
					c0.214,0,0.389,0.063,0.522,0.18c0.133,0.117,0.198,0.285,0.198,0.5c0,0.189-0.072,0.408-0.222,0.667
					c-0.151,0.253-0.373,0.499-0.67,0.731c-0.302,0.233-0.681,0.426-1.135,0.584c-0.455,0.15-0.977,0.227-1.567,0.227
					C421.523,763.076,421.45,763.076,421.378,763.072z M419.472,758.127h1.906v1.194h-1.906c0.009,0.478,0.102,0.898,0.288,1.261
					c0.188,0.367,0.434,0.64,0.75,0.822c0.265,0.162,0.555,0.25,0.868,0.273v1.395c-1.246-0.039-2.224-0.424-2.928-1.15
					c-0.751-0.77-1.127-1.813-1.127-3.13c0-0.625,0.093-1.2,0.279-1.733c0.184-0.528,0.453-0.987,0.806-1.365
					c0.353-0.379,0.792-0.668,1.311-0.873c0.497-0.196,1.051-0.296,1.658-0.303v1.461h-0.005c-0.521,0-0.954,0.18-1.292,0.541
					C419.747,756.882,419.543,757.418,419.472,758.127z"/>
				<path style="fill-rule:evenodd;clip-rule:evenodd;fill:#819096;" d="M430.746,758.127h1.904
					c-0.053-0.717-0.246-1.256-0.577-1.612c-0.338-0.354-0.776-0.534-1.327-0.536v-1.461h0.064c0.825,0,1.529,0.17,2.116,0.52
					c0.586,0.344,1.029,0.793,1.321,1.342c0.293,0.549,0.438,1.109,0.438,1.68c0,0.525-0.153,0.873-0.455,1.028
					c-0.3,0.157-0.724,0.234-1.276,0.234h-2.207V758.127L430.746,758.127z M430.746,763.072v-1.395
					c0.053,0.003,0.104,0.006,0.158,0.006c0.252,0,0.479-0.029,0.688-0.088c0.21-0.057,0.412-0.153,0.603-0.279
					c0.198-0.125,0.378-0.26,0.542-0.402c0.165-0.144,0.38-0.34,0.641-0.583c0.107-0.095,0.256-0.144,0.459-0.144
					c0.218,0,0.393,0.063,0.525,0.18c0.131,0.117,0.199,0.285,0.199,0.5c0,0.189-0.073,0.408-0.22,0.667
					c-0.152,0.253-0.378,0.499-0.679,0.731c-0.299,0.233-0.676,0.426-1.129,0.584c-0.458,0.15-0.978,0.227-1.567,0.227
					C430.893,763.076,430.819,763.076,430.746,763.072z M428.842,758.127h1.904v1.194h-1.904c0.005,0.478,0.102,0.898,0.289,1.261
					c0.186,0.367,0.435,0.64,0.746,0.822c0.267,0.162,0.557,0.25,0.869,0.273v1.395c-1.243-0.039-2.22-0.424-2.928-1.15
					c-0.75-0.77-1.124-1.813-1.124-3.13c0-0.625,0.095-1.2,0.273-1.733c0.189-0.528,0.458-0.987,0.811-1.365
					c0.352-0.379,0.79-0.668,1.311-0.873c0.501-0.196,1.054-0.296,1.656-0.303v1.461h-0.004c-0.524,0-0.952,0.18-1.288,0.541
					C429.119,756.882,428.909,757.418,428.842,758.127z"/>
				<path style="fill-rule:evenodd;clip-rule:evenodd;fill:#819096;" d="M442.304,758.767c0-0.557-0.081-1.03-0.252-1.429
					c-0.17-0.398-0.402-0.706-0.703-0.915c-0.3-0.216-0.633-0.319-0.996-0.319l-0.058,0.001v-1.511
					c0.183-0.03,0.373-0.047,0.572-0.047c0.647,0,1.24,0.169,1.786,0.5c0.545,0.334,0.976,0.821,1.291,1.463
					c0.313,0.641,0.471,1.398,0.471,2.282c0,0.645-0.092,1.237-0.271,1.778c-0.184,0.541-0.432,1-0.751,1.363
					c-0.318,0.365-0.692,0.652-1.126,0.848c-0.434,0.199-0.902,0.295-1.399,0.295c-0.202,0-0.393-0.014-0.572-0.041v-1.582
					l0.058,0.002c0.351,0,0.673-0.103,0.969-0.308c0.298-0.201,0.537-0.503,0.716-0.911
					C442.214,759.831,442.304,759.342,442.304,758.767z M440.295,756.104c-0.554,0.015-1.024,0.241-1.409,0.683
					c-0.399,0.456-0.6,1.13-0.6,2.018c0,0.834,0.199,1.485,0.597,1.95c0.379,0.453,0.851,0.685,1.412,0.698v1.582
					c-0.355-0.054-0.67-0.161-0.94-0.32c-0.409-0.24-0.797-0.592-1.167-1.063v3.157c0,0.924-0.339,1.386-1.006,1.386
					c-0.397,0-0.657-0.121-0.788-0.359c-0.129-0.236-0.19-0.588-0.19-1.044v-9.069c0-0.4,0.089-0.697,0.26-0.896
					c0.176-0.196,0.414-0.296,0.719-0.296c0.296,0,0.538,0.1,0.725,0.303c0.188,0.203,0.281,0.498,0.281,0.873v0.254
					c0.399-0.485,0.808-0.846,1.234-1.072c0.268-0.144,0.559-0.242,0.873-0.295V756.104z"/>
				<path style="fill-rule:evenodd;clip-rule:evenodd;fill:#819096;" d="M448.204,755.723v6.076c0,0.423-0.103,0.739-0.301,0.955
					c-0.199,0.217-0.451,0.322-0.762,0.322c-0.308,0-0.556-0.108-0.751-0.329c-0.193-0.221-0.287-0.538-0.287-0.948v-6.012
					c0-0.414,0.094-0.732,0.287-0.938c0.195-0.212,0.443-0.318,0.751-0.318c0.31,0,0.563,0.106,0.762,0.318
					C448.102,755.055,448.204,755.348,448.204,755.723L448.204,755.723z M447.168,753.555c-0.296,0-0.55-0.094-0.755-0.269
					c-0.204-0.18-0.31-0.434-0.31-0.762c0-0.298,0.107-0.545,0.319-0.736c0.211-0.195,0.46-0.29,0.745-0.29
					c0.268,0,0.511,0.087,0.723,0.26c0.209,0.179,0.314,0.431,0.314,0.767c0,0.322-0.103,0.574-0.308,0.759
					C447.691,753.461,447.446,753.555,447.168,753.555z"/>
				<path style="fill-rule:evenodd;clip-rule:evenodd;fill:#819096;" d="M455.612,762.114l-1.858-3.05l-1.141,1.08v1.672
					c0,0.405-0.102,0.715-0.314,0.936c-0.219,0.219-0.463,0.324-0.735,0.324c-0.325,0-0.581-0.105-0.764-0.322
					c-0.188-0.216-0.278-0.532-0.278-0.955v-8.96c0-0.469,0.086-0.823,0.267-1.066c0.183-0.246,0.438-0.368,0.775-0.368
					c0.322,0,0.576,0.106,0.768,0.331c0.188,0.223,0.281,0.546,0.281,0.978v5.098l2.365-2.481c0.296-0.307,0.517-0.518,0.667-0.632
					c0.157-0.114,0.344-0.169,0.564-0.169c0.264,0,0.479,0.082,0.658,0.252c0.171,0.166,0.261,0.375,0.261,0.625
					c0,0.309-0.285,0.722-0.855,1.234l-1.113,1.022l2.152,3.391c0.163,0.25,0.276,0.441,0.343,0.57
					c0.071,0.131,0.102,0.258,0.102,0.372c0,0.338-0.088,0.597-0.272,0.792c-0.183,0.191-0.425,0.287-0.717,0.287
					c-0.259,0-0.458-0.067-0.596-0.205C456.036,762.731,455.848,762.479,455.612,762.114z"/>
				<path style="fill-rule:evenodd;clip-rule:evenodd;fill:#819096;" d="M460.808,763.076c-0.317,0-0.592-0.1-0.821-0.309
					c-0.231-0.203-0.353-0.491-0.353-0.863c0-0.31,0.113-0.58,0.333-0.807c0.224-0.225,0.497-0.336,0.818-0.336
					c0.323,0,0.597,0.111,0.827,0.332c0.227,0.223,0.342,0.492,0.342,0.81c0.001,0.367-0.115,0.656-0.342,0.861
					C461.382,762.977,461.116,763.076,460.808,763.076z"/>
				<path style="fill-rule:evenodd;clip-rule:evenodd;fill:#819096;" d="M471.889,760.475c0,0.262-0.081,0.542-0.237,0.84
					c-0.157,0.299-0.395,0.58-0.714,0.854c-0.319,0.267-0.727,0.482-1.212,0.646c-0.488,0.166-1.04,0.246-1.65,0.246
					c-1.299,0-2.31-0.379-3.04-1.136c-0.728-0.755-1.095-1.771-1.095-3.042c0-0.867,0.168-1.627,0.502-2.289
					c0.331-0.662,0.816-1.172,1.449-1.533c0.629-0.364,1.385-0.543,2.261-0.543c0.544,0,1.041,0.078,1.497,0.237
					c0.457,0.161,0.838,0.36,1.156,0.618c0.314,0.248,0.557,0.516,0.725,0.801c0.167,0.287,0.248,0.553,0.248,0.799
					c0,0.252-0.093,0.467-0.283,0.64c-0.184,0.174-0.412,0.26-0.678,0.26c-0.177,0-0.324-0.044-0.438-0.134
					c-0.114-0.088-0.245-0.232-0.387-0.436c-0.258-0.389-0.524-0.682-0.805-0.878c-0.279-0.194-0.636-0.29-1.065-0.29
					c-0.621,0-1.121,0.24-1.501,0.727c-0.379,0.486-0.573,1.145-0.573,1.988c0,0.396,0.048,0.76,0.148,1.092
					c0.097,0.329,0.237,0.61,0.425,0.847c0.179,0.231,0.408,0.411,0.668,0.528c0.262,0.123,0.553,0.185,0.862,0.185
					c0.417,0,0.781-0.101,1.082-0.293c0.302-0.198,0.565-0.491,0.798-0.895c0.128-0.237,0.269-0.421,0.417-0.554
					c0.147-0.134,0.328-0.199,0.543-0.199c0.262,0,0.471,0.097,0.641,0.291C471.8,760.049,471.888,760.257,471.889,760.475z"/>
				<path style="fill-rule:evenodd;clip-rule:evenodd;fill:#819096;" d="M479.479,758.805c0-0.858-0.192-1.525-0.569-2.002
					c-0.371-0.473-0.872-0.714-1.507-0.717v-1.555c0.637,0.003,1.205,0.108,1.722,0.307c0.517,0.205,0.961,0.496,1.331,0.879
					c0.371,0.381,0.65,0.832,0.84,1.357c0.197,0.522,0.291,1.098,0.291,1.73c0,0.625-0.094,1.203-0.291,1.729
					c-0.197,0.531-0.481,0.984-0.85,1.362c-0.369,0.38-0.808,0.674-1.321,0.88c-0.511,0.2-1.085,0.3-1.722,0.3v-1.564
					c0.635-0.004,1.136-0.241,1.507-0.719C479.287,760.313,479.479,759.648,479.479,758.805z M477.403,756.086h-0.015
					c-0.408,0-0.771,0.106-1.084,0.318c-0.31,0.217-0.554,0.529-0.726,0.943c-0.166,0.416-0.252,0.905-0.252,1.457
					c0,0.551,0.083,1.029,0.252,1.439c0.166,0.41,0.404,0.723,0.713,0.943c0.311,0.217,0.678,0.324,1.097,0.324h0.015v1.564h-0.015
					c-0.632,0-1.206-0.1-1.716-0.309c-0.506-0.203-0.945-0.496-1.321-0.879c-0.369-0.385-0.653-0.834-0.841-1.354
					c-0.195-0.521-0.293-1.098-0.293-1.729c0-0.638,0.098-1.219,0.298-1.749c0.19-0.526,0.473-0.98,0.832-1.355
					c0.366-0.374,0.808-0.664,1.325-0.867c0.521-0.203,1.091-0.303,1.716-0.303h0.015V756.086z"/>
				<path style="fill-rule:evenodd;clip-rule:evenodd;fill:#819096;" d="M490.234,758.959v2.793c0,0.441-0.101,0.774-0.302,0.995
					c-0.197,0.221-0.464,0.329-0.794,0.329c-0.317,0-0.575-0.108-0.773-0.329c-0.198-0.221-0.298-0.554-0.298-0.995v-3.35
					c0-0.53-0.019-0.933-0.054-1.229c-0.035-0.294-0.133-0.534-0.293-0.72c-0.156-0.189-0.41-0.279-0.753-0.279
					c-0.688,0-1.14,0.233-1.357,0.705c-0.219,0.473-0.326,1.148-0.326,2.033v2.84c0,0.438-0.103,0.766-0.303,0.99
					c-0.192,0.222-0.455,0.334-0.778,0.334c-0.317,0-0.577-0.112-0.783-0.334c-0.202-0.225-0.303-0.552-0.303-0.99v-6.015
					c0-0.393,0.092-0.694,0.273-0.899c0.184-0.2,0.424-0.307,0.721-0.307c0.287,0,0.529,0.096,0.72,0.289
					c0.193,0.193,0.288,0.46,0.288,0.797v0.199c0.367-0.435,0.756-0.756,1.172-0.963c0.416-0.201,0.878-0.307,1.384-0.307
					c0.532,0,0.984,0.105,1.361,0.315c0.381,0.21,0.698,0.528,0.942,0.954c0.354-0.429,0.734-0.751,1.139-0.957
					c0.404-0.207,0.855-0.313,1.351-0.313c0.572,0,1.068,0.113,1.482,0.336c0.417,0.232,0.725,0.553,0.93,0.972
					c0.184,0.383,0.271,0.981,0.271,1.796v4.102c0,0.441-0.103,0.774-0.302,0.995c-0.196,0.221-0.46,0.329-0.792,0.329
					c-0.315,0-0.577-0.112-0.779-0.334c-0.206-0.225-0.305-0.552-0.305-0.99v-3.533c0-0.449-0.018-0.814-0.056-1.089
					c-0.043-0.269-0.143-0.498-0.314-0.681c-0.168-0.186-0.427-0.275-0.771-0.275c-0.277,0-0.536,0.082-0.787,0.246
					c-0.246,0.162-0.442,0.383-0.582,0.661C490.31,757.434,490.234,758.059,490.234,758.959z"/>
				<path style="fill-rule:evenodd;clip-rule:evenodd;fill:#819096;" d="M389.221,749.113c-0.042-0.136-0.088-0.269-0.131-0.404
					c0.704-0.065,1.179-0.91,0.834-1.539c-0.167-0.374-0.553-0.575-0.94-0.582h-0.045c-0.327,0.005-0.65,0.148-0.838,0.438
					c-0.449,0.57-0.1,1.479,0.59,1.663c0.041,0.142,0.082,0.289,0.126,0.437c-1.059,0.069-2.139,0.307-3.026,0.91
					c0.092,0.252,0.185,0.511,0.272,0.772c1.794-0.788,3.802-0.618,5.69-0.429c0.063-0.248,0.125-0.498,0.189-0.748
					C391.087,749.246,390.149,749.106,389.221,749.113z"/>
				<path style="fill-rule:evenodd;clip-rule:evenodd;fill:#819096;" d="M399.873,752.002c-0.282,0.147-0.337,0.488-0.318,0.773
					c-0.317,0.307-0.167,0.768-0.2,1.152c-0.072,0.215-0.33,0.24-0.51,0.319c-0.248-0.374-0.51-0.736-0.843-1.046l0.004-0.018
					c-0.362-0.338-0.751-0.648-1.165-0.914c-0.329,0.356-0.679,0.703-0.994,1.072c0.627,0.695,1.211,1.44,1.727,2.222
					c0.357,0.598,0.641,1.233,0.887,1.882c0.531-0.272,1.059-0.557,1.593-0.84c-0.282-0.648-0.601-1.283-0.944-1.905
					c0.237-0.126,0.553-0.25,0.589-0.558c0.028-0.34-0.048-0.709,0.155-1.007c0.412,0.269,1.037-0.033,1.044-0.536
					C400.951,752.082,400.3,751.713,399.873,752.002z"/>
				<path style="fill-rule:evenodd;clip-rule:evenodd;fill:#819096;" d="M395.698,756.315c-0.127,0.865-0.951,1.598-1.835,1.544
					v3.469c1.623-0.436,3.19-1.075,4.642-1.927c0,0-0.307-1.688-1.51-3.532c-0.693-1.151-1.445-2.296-2.467-3.183
					c-0.211-0.185-0.434-0.361-0.665-0.523v2.006c0.224,0.005,0.446,0.048,0.66,0.1
					C395.333,754.553,395.864,755.469,395.698,756.315z M393.863,757.858h-0.007c-0.512,0.041-1.005-0.202-1.353-0.562
					c-0.249-0.313-0.456-0.669-0.489-1.075c-0.121-0.879,0.499-1.787,1.359-1.993c0.16-0.049,0.325-0.064,0.489-0.06v-2.006
					c-1.063-0.742-2.333-1.213-3.636-1.206c-1.607-0.019-3.232,0.185-4.763,0.679v1.907c0.282,0,0.566,0.04,0.841,0.117
					c0.309,0.077,0.593,0.221,0.857,0.401c0.547,0.385,0.959,0.955,1.141,1.603c0.254,0.831,0.092,1.763-0.391,2.479
					c-0.35,0.506-0.848,0.897-1.422,1.117c-0.327,0.123-0.676,0.182-1.026,0.182v2.575l0.081,0.003
					c1.88,0.057,3.773,0.106,5.64-0.16c0.901-0.117,1.798-0.295,2.678-0.532V757.858z M385.465,751.635v1.907
					c-0.484-0.001-0.967,0.11-1.395,0.341c-0.887,0.475-1.514,1.418-1.555,2.432c-0.06,0.81,0.264,1.616,0.805,2.214
					c0.541,0.597,1.343,0.913,2.145,0.913v2.575c-1.878-0.097-3.729-0.503-5.552-0.96c-0.332-1.685-0.342-3.514,0.398-5.099
					c0.768-1.763,2.281-3.13,4.026-3.896C384.706,751.9,385.083,751.759,385.465,751.635z"/>
				<path style="fill-rule:evenodd;clip-rule:evenodd;fill:#819096;" d="M380.335,753.299c-0.752,0.453-1.369,1.09-1.883,1.795
					c-0.15-0.28-0.195-0.613-0.392-0.862c-0.112-0.15-0.313-0.089-0.469-0.09c-0.199,0.019-0.392-0.034-0.58-0.09
					c0.218-0.31,0.161-0.784-0.176-0.985c-0.359-0.26-0.914-0.035-1.011,0.394c-0.15,0.467,0.349,0.938,0.808,0.815
					c0.244,0.362,0.685,0.303,1.062,0.317c0.167,0.29,0.297,0.612,0.513,0.878c-0.402,0.793-0.63,1.683-0.648,2.572
					c0.518,0.215,1.033,0.438,1.553,0.652c0.025-0.564,0.09-1.121,0.176-1.671c0.174-1.208,0.871-2.256,1.699-3.12
					C380.778,753.688,380.549,753.501,380.335,753.299z"/>
				<path style="fill-rule:evenodd;clip-rule:evenodd;fill:#819096;" d="M392.414,762.389c-1.904,0.415-3.87,0.537-5.815,0.451
					c-1.316-0.066-2.633-0.189-3.92-0.473c-0.91-0.184-1.805-0.449-2.7-0.705c0.144,1.144,0.607,2.24,1.269,3.184
					c0.779,1.098,1.822,2.105,3.121,2.512c0.95,0.254,2.073,0.579,3.923,0.588h0.189l0.191-0.004
					c1.723-0.03,3.414-0.248,4.926-0.892c0.973-0.419,1.887-0.989,2.672-1.703c0.678-0.64,1.209-1.436,1.576-2.293
					c0.353-0.807,0.673-2.261,0.639-3.005C396.62,761.111,394.536,762.033,392.414,762.389z"/>
			</g>
		</g>
		<g>
			<g>
				<path style="fill-rule:evenodd;clip-rule:evenodd;fill:#434849;" d="M653.063,294.402"/>
				<g>
					<path style="fill-rule:evenodd;clip-rule:evenodd;fill:#D0D1D2;" d="M301.082,354.114c-0.366,0-0.661-0.296-0.661-0.661
						c0-0.365,0.294-0.661,0.661-0.661"/>
				</g>
				<g>
					<g>
						<g>
							<path style="fill:#C7631B;" d="M735.452,400.28c0,2.545-2.063,4.607-4.608,4.607h-50.417c-2.545,0-4.607-2.063-4.607-4.607
								l0,0c0-2.544,2.063-4.607,4.607-4.607h50.417C733.389,395.674,735.452,397.736,735.452,400.28L735.452,400.28z"/>
							<g>
								<path style="fill:#333333;" d="M730.844,395.673c2.545,0,4.608,2.063,4.608,4.606l0,0c0,2.545-2.063,4.608-4.608,4.608"/>
								<rect x="720.995" y="395.674" style="fill:#333333;" width="3.333" height="9.214"/>
								<rect x="712.995" y="395.674" style="fill:#333333;" width="3.333" height="9.214"/>
								<rect x="704.995" y="395.674" style="fill:#333333;" width="3.333" height="9.214"/>
							</g>
						</g>
						<path style="fill-rule:evenodd;clip-rule:evenodd;fill:#C56A27;" d="M705.411,368.502c0,20.565,0,37.465-37.236,37.236h-0.682
							c-37.236,2.555-37.236-16.67-37.236-37.236v-0.607c0-20.564,16.672-37.235,37.236-37.235h0.682
							c20.563,0,37.236,16.67,37.236,37.235V368.502z"/>
					</g>
					<g>
						<g>
							<g>
								<g>
									<g>
										<g>
											<path style="fill:#E38032;" d="M704.237,301.117c0,6.528-5.292,11.818-11.817,11.818
												c-6.526,0-11.817-5.291-11.817-11.818c0-6.526,5.291-11.816,11.817-11.816
												C698.945,289.3,704.237,294.591,704.237,301.117z"/>
										</g>
									</g>
									<g>
										<g>
											<path style="fill:#754C24;" d="M699.232,301.117c0,3.763-3.052,6.815-6.813,6.815c-3.764,0-6.813-3.052-6.813-6.815
												c0-3.761,3.05-6.813,6.813-6.813C696.181,294.304,699.232,297.355,699.232,301.117z"/>
										</g>
									</g>
								</g>
							</g>
							<g>
								<g>
									<g>
										<g>
											<path style="fill:#E38032;" d="M653.063,301.117c0,6.528-5.292,11.818-11.817,11.818
												c-6.526,0-11.817-5.291-11.817-11.818c0-6.526,5.291-11.816,11.817-11.816
												C647.771,289.3,653.063,294.591,653.063,301.117z"/>
										</g>
									</g>
									<g>
										<g>
											<path style="fill:#754C24;" d="M648.059,301.117c0,3.763-3.052,6.815-6.813,6.815c-3.764,0-6.814-3.052-6.814-6.815
												c0-3.761,3.05-6.813,6.814-6.813C645.007,294.304,648.059,297.355,648.059,301.117z"/>
										</g>
									</g>
								</g>
							</g>
						</g>
						<g>
							<defs>
								<path id="XMLID_1_" d="M630.509,325.468c0-18.68,16.711-33.822,37.325-33.822c20.615,0,37.325,15.142,37.325,33.822
									c0,18.679-9.247,33.822-37.325,33.822C637.857,359.29,630.509,344.147,630.509,325.468z"/>
							</defs>
							<use xlink:href="#XMLID_1_"  style="overflow:visible;fill-rule:evenodd;clip-rule:evenodd;fill:#E38032;"/>
							<clipPath id="XMLID_00000015344678433894226340000016789177707442370469_">
								<use xlink:href="#XMLID_1_"  style="overflow:visible;"/>
							</clipPath>
						</g>
						<g>
							<g>
								<g>
									<path style="fill-rule:evenodd;clip-rule:evenodd;fill:#333333;" d="M657.57,317.535c0-2.25-1.825-4.074-4.074-4.074
										c-2.25,0-4.074,1.824-4.074,4.074s1.824,4.074,4.074,4.074C655.745,321.608,657.57,319.785,657.57,317.535z"/>
									<path style="fill-rule:evenodd;clip-rule:evenodd;fill:#FFFFFF;" d="M653.667,316.749c0-0.85,0.686-1.541,1.539-1.541
										c0.853,0,1.538,0.691,1.538,1.541c0,0.851-0.685,1.542-1.538,1.542C654.353,318.29,653.667,317.6,653.667,316.749z"/>
								</g>
								<g>
									<path style="fill-rule:evenodd;clip-rule:evenodd;fill:#333333;" d="M687.819,317.535c0-2.25-1.825-4.074-4.074-4.074
										c-2.25,0-4.074,1.824-4.074,4.074s1.824,4.074,4.074,4.074C685.994,321.608,687.819,319.785,687.819,317.535z"/>
									<path style="fill-rule:evenodd;clip-rule:evenodd;fill:#FFFFFF;" d="M683.916,316.749c0-0.85,0.686-1.541,1.539-1.541
										c0.852,0,1.538,0.691,1.538,1.541c0,0.851-0.686,1.542-1.538,1.542C684.602,318.29,683.916,317.6,683.916,316.749z"/>
								</g>
							</g>
							<g>
								<g>
									<path style="fill-rule:evenodd;clip-rule:evenodd;fill:#333333;" d="M631.543,317.535l11.699,6.243l-12.618,5.578
										C630.624,329.355,630.012,321.021,631.543,317.535z"/>
									<path style="fill-rule:evenodd;clip-rule:evenodd;fill:#333333;" d="M630.921,332.589l18.501-0.954l-13.683,15.16
										C635.739,346.795,631.973,341.938,630.921,332.589z"/>
								</g>
								<g>
									<path style="fill-rule:evenodd;clip-rule:evenodd;fill:#333333;" d="M704.119,317.535l-11.699,6.243l12.618,5.578
										C705.038,329.355,705.65,321.021,704.119,317.535z"/>
									<path style="fill-rule:evenodd;clip-rule:evenodd;fill:#333333;" d="M704.741,332.589l-18.501-0.954l13.269,14.701
										C699.509,346.336,703.689,341.938,704.741,332.589z"/>
								</g>
							</g>
							<g>
								<polygon style="fill-rule:evenodd;clip-rule:evenodd;fill:#F3AB32;" points="662.806,313.461 675.431,313.461 
									682.056,339.854 656.744,339.854 								"/>
								<g>
									<path style="fill-rule:evenodd;clip-rule:evenodd;fill:#333333;" d="M682.056,339.854c0,5.699-5.666,10.319-12.656,10.319
										c-6.989,0-12.655-4.62-12.655-10.319"/>
									<g>
										<path style="fill:#333333;" d="M661.514,357.827c-1.22,0-2.571-0.164-4.052-0.494c-0.269-0.06-0.439-0.327-0.38-0.597
											c0.06-0.268,0.326-0.439,0.597-0.38c3.983,0.888,6.909,0.523,8.699-1.082c2.288-2.05,1.935-5.52,1.931-5.555
											c-0.03-0.274,0.167-0.522,0.441-0.552c0.283-0.033,0.521,0.166,0.553,0.44c0.019,0.162,0.42,4.005-2.25,6.405
											C665.71,357.221,663.854,357.827,661.514,357.827z"/>
									</g>
									<g>
										<path style="fill:#333333;" d="M676.15,357.48c-2.342,0-4.196-0.605-5.539-1.814c-2.67-2.4-2.268-6.243-2.25-6.405
											c0.031-0.274,0.267-0.475,0.553-0.44c0.274,0.031,0.472,0.278,0.441,0.552c-0.004,0.035-0.357,3.505,1.931,5.555
											c1.788,1.605,4.718,1.969,8.699,1.082c0.271-0.058,0.537,0.111,0.597,0.38c0.06,0.27-0.11,0.537-0.38,0.597
											C678.723,357.315,677.37,357.48,676.15,357.48z"/>
									</g>
								</g>
							</g>
						</g>
					</g>
				</g>
			</g>
			<g>
				<g>
					<path style="fill-rule:evenodd;clip-rule:evenodd;fill:#F68084;" d="M152.464,365.725c0,20.565,0,37.465-37.236,37.235h-0.682
						C77.31,405.516,77.31,386.29,77.31,365.725v-0.607c0-20.564,16.672-37.235,37.236-37.235h0.682
						c20.564,0,37.236,16.67,37.236,37.235V365.725z"/>
					<g>
						<g>
							<g>
								<path style="fill:#F68084;" d="M145.93,384.615c4.51,3.805,11.985,4.545,17.303,2.087c3.139-1.448,10.792-7.838,3.886-9.814
									c-3.745-1.07-7.313,1.399-6.898,5.273c0.58,5.448,6.193,8.135,11.068,7.882c1.736-0.088,5.601-2.866,2.105-2.686
									c-4.256,0.219-8.486-3.478-7.969-7.986c0.035-0.159,0.08-0.316,0.123-0.476c-2.436-0.004-2.711,0.57-0.825,1.725
									c0.619,1.466-2.435,3.529-3.265,4.073c-2.986,1.962-8.184,0.046-10.65-2.038
									C149.504,381.558,144.686,383.568,145.93,384.615L145.93,384.615z"/>
							</g>
						</g>
					</g>
				</g>
				<g>
					<g>
						<path style="fill-rule:evenodd;clip-rule:evenodd;fill:#F6A3A5;" d="M128.653,310.37c0,0,2.225-11.84,14.466-17.51
							c0,0,6.578,10.972,2.889,23.518"/>
						<path style="fill-rule:evenodd;clip-rule:evenodd;fill:#F68084;" d="M129.971,312.918c0,0,1.724-9.178,11.213-13.573
							c0,0,5.1,8.505,2.239,18.232"/>
					</g>
					<g>
						<path style="fill-rule:evenodd;clip-rule:evenodd;fill:#F6A3A5;" d="M101.481,309.772c0,0-2.225-11.84-14.466-17.51
							c0,0-6.578,10.972-2.889,23.519"/>
						<path style="fill-rule:evenodd;clip-rule:evenodd;fill:#F68084;" d="M100.163,312.319c0,0-1.724-9.178-11.213-13.573
							c0,0-5.1,8.505-2.239,18.231"/>
					</g>
				</g>
				<g>
					<defs>
						<ellipse id="XMLID_2_" cx="114.887" cy="334.644" rx="37.325" ry="33.822"/>
					</defs>
					<use xlink:href="#XMLID_2_"  style="overflow:visible;fill-rule:evenodd;clip-rule:evenodd;fill:#F6A3A5;"/>
					<clipPath id="XMLID_00000160188610907931540950000005037634818378447789_">
						<use xlink:href="#XMLID_2_"  style="overflow:visible;"/>
					</clipPath>
				</g>
				<g>
					<g>
						<g>
							<path style="fill-rule:evenodd;clip-rule:evenodd;fill:#434849;" d="M93.001,330.647c0-2.116,1.717-3.832,3.833-3.832
								c2.116,0,3.832,1.716,3.832,3.832c0,2.117-1.716,3.832-3.832,3.832C94.718,334.479,93.001,332.763,93.001,330.647z"/>
							<path style="fill-rule:evenodd;clip-rule:evenodd;fill:#FFFFFF;" d="M96.834,329.907c0-0.8,0.645-1.45,1.447-1.45
								c0.802,0,1.447,0.65,1.447,1.45c0,0.8-0.646,1.45-1.447,1.45C97.479,331.357,96.834,330.707,96.834,329.907z"/>
						</g>
						<g>
							<path style="fill-rule:evenodd;clip-rule:evenodd;fill:#434849;" d="M128.653,329.936c0-2.116,1.717-3.832,3.833-3.832
								c2.116,0,3.832,1.716,3.832,3.832c0,2.117-1.716,3.833-3.832,3.833C130.37,333.769,128.653,332.053,128.653,329.936z"/>
							<path style="fill-rule:evenodd;clip-rule:evenodd;fill:#FFFFFF;" d="M132.485,329.197c0-0.8,0.645-1.45,1.447-1.45
								c0.802,0,1.447,0.65,1.447,1.45c0,0.8-0.645,1.45-1.447,1.45C133.13,330.647,132.485,329.998,132.485,329.197z"/>
						</g>
					</g>
					<g>
						<path style="fill-rule:evenodd;clip-rule:evenodd;fill:#F68084;" d="M101.85,343.995c0-7.2,5.837-13.037,13.037-13.037
							c7.201,0,13.038,5.837,13.038,13.037c0,7.201-5.837,13.038-13.038,13.038C107.687,357.032,101.85,351.195,101.85,343.995z"/>
						<g>
							<path style="fill-rule:evenodd;clip-rule:evenodd;fill:#DB6971;" d="M107.474,343.995c0-0.918,0.745-1.663,1.663-1.663
								c0.918,0,1.663,0.745,1.663,1.663c0,0.919-0.745,1.664-1.663,1.664C108.219,345.658,107.474,344.914,107.474,343.995z"/>
							<path style="fill-rule:evenodd;clip-rule:evenodd;fill:#DB6971;" d="M118.974,343.995c0-0.918,0.745-1.663,1.663-1.663
								c0.918,0,1.663,0.745,1.663,1.663c0,0.919-0.745,1.664-1.663,1.664C119.719,345.658,118.974,344.914,118.974,343.995z"/>
						</g>
					</g>
				</g>
			</g>
			<g>
				<g>
					<path style="fill:#469B9D;" d="M700.035,565.435c0,0,4.976,23.738,23.541,15.133c0,0-7.758-7.358-4.508-11.678
						c3.248-4.324,15.898-17.247,15.898-17.247s10.338,10.586,1.207,20.647c0,0,9.104-7.737,20.037,1.111
						c0,0-15.064,22.968-24.867,13.943c0,0-17.727,27.917-60.322,31.251"/>
					<g>
						<path style="fill:#2595CE;" d="M659.995,533.736c0,0-2.348-3.523-8.218-3.132c-5.87,0.392-2.348-8.608,4.109-7.435
							C662.344,524.344,659.213,529.431,659.995,533.736z"/>
						<path style="fill:#2595CE;" d="M660.644,523.065c0,0,0.101-2.652-3.025-4.609c-3.126-1.957,1.97-5.235,4.817-2.268
							C665.285,519.155,661.826,520.59,660.644,523.065z"/>
						<path style="fill:#2595CE;" d="M661.963,533.736c0,0,2.348-3.523,8.217-3.132c5.871,0.392,2.35-8.608-4.108-7.435
							C659.615,524.344,662.745,529.431,661.963,533.736z"/>
					</g>
					<path style="fill:#469B9D;" d="M619.757,578.613c0-22.767,18.455-41.221,41.222-41.221c22.766,0,41.221,18.454,41.221,41.221
						c0,22.766-18.455,41.222-41.221,41.222C638.212,619.835,619.757,601.379,619.757,578.613z"/>
					<path style="fill:#E2E2E2;" d="M619.811,580.749c0,0,14.175,5.596,24.787-0.976c6.019-3.727,5.459,22.983,22.921,27.663
						c17.461,4.679,46.444-2.306,63.824-20.091c0,0-36.719,53.404-90.785,28.655C640.559,616.001,620.651,607.495,619.811,580.749z"
						/>
				</g>
				<path style="fill:#218588;" d="M655.01,578.367c-0.009,3.154,0.427,6.3,1.31,9.293c0.227,0.746,0.486,1.48,0.78,2.2
					c0.299,0.717,0.64,1.413,1.011,2.091l0.6,0.989l0.669,0.939l0.727,0.891c0.251,0.288,0.531,0.55,0.795,0.827
					c0.558,0.519,1.14,1.017,1.781,1.43c0.306,0.229,0.639,0.415,0.976,0.593c0.333,0.186,0.664,0.375,1.023,0.509
					c0.691,0.325,1.424,0.545,2.157,0.762c0.748,0.154,1.489,0.361,2.259,0.412l1.146,0.12l1.155,0.035
					c0.771,0.056,1.545-0.053,2.318-0.07c0.772-0.063,1.541-0.185,2.313-0.273l2.294-0.445l-0.257,0.169
					c0.193-0.274,0.372-0.67,0.523-1.029c0.14-0.377,0.27-0.761,0.358-1.158c0.117-0.39,0.147-0.803,0.227-1.203
					c0.032-0.409,0.087-0.817,0.1-1.23c-0.005-0.412,0.016-0.826-0.01-1.24l-0.107-1.241l-0.213-1.233
					c-0.058-0.414-0.198-0.813-0.292-1.22c-0.107-0.405-0.201-0.814-0.353-1.208l-0.412-1.191c-0.135-0.399-0.317-0.78-0.475-1.172
					c-0.165-0.388-0.319-0.782-0.495-1.166c-0.384-0.752-0.749-1.518-1.151-2.264l-1.273-2.207l1.443,2.106
					c0.449,0.723,0.864,1.469,1.299,2.205c0.201,0.376,0.382,0.765,0.573,1.146c0.182,0.388,0.398,0.761,0.55,1.162l0.468,1.199
					c0.169,0.396,0.282,0.812,0.407,1.224c0.113,0.415,0.272,0.819,0.348,1.245l0.268,1.27l0.161,1.293
					c0.044,0.433,0.039,0.87,0.061,1.307c0.003,0.436-0.037,0.875-0.059,1.313c-0.078,0.434-0.106,0.875-0.227,1.304
					c-0.092,0.433-0.228,0.857-0.379,1.277c-0.177,0.423-0.333,0.814-0.623,1.242l-0.091,0.135l-0.166,0.034l-2.346,0.485
					c-0.794,0.103-1.585,0.236-2.383,0.313c-0.803,0.029-1.601,0.148-2.409,0.103l-1.21-0.022c-0.402-0.026-0.804-0.088-1.206-0.132
					c-0.807-0.064-1.596-0.291-2.385-0.466c-0.778-0.239-1.554-0.485-2.29-0.841c-0.38-0.148-0.732-0.354-1.087-0.558
					c-0.358-0.195-0.711-0.398-1.036-0.647c-0.68-0.451-1.296-0.989-1.883-1.551c-0.277-0.297-0.57-0.58-0.833-0.889l-0.756-0.954
					l-0.666-1.014l-0.588-1.058c-0.36-0.721-0.687-1.454-0.967-2.205c-0.274-0.753-0.513-1.517-0.715-2.288
					c-0.196-0.773-0.364-1.553-0.493-2.338c-0.115-0.787-0.214-1.575-0.271-2.366C654.882,581.529,654.853,579.94,655.01,578.367z"
					/>
				<g>
					<path style="fill-rule:evenodd;clip-rule:evenodd;fill:#434849;" d="M633.229,564.789c0-2.115,1.717-3.832,3.833-3.832
						c2.115,0,3.832,1.717,3.832,3.832c0,2.117-1.717,3.833-3.832,3.833C634.946,568.622,633.229,566.906,633.229,564.789z"/>
					<path style="fill-rule:evenodd;clip-rule:evenodd;fill:#FFFFFF;" d="M637.063,564.051c0-0.801,0.644-1.45,1.446-1.45
						c0.802,0,1.447,0.649,1.447,1.45c0,0.8-0.646,1.449-1.447,1.449C637.707,565.5,637.063,564.851,637.063,564.051z"/>
				</g>
			</g>
			<g>
				<g>
					<g>
						<path style="fill-rule:evenodd;clip-rule:evenodd;fill:#8C8B88;" d="M150.952,151.629c0,19.176,0,34.936-34.724,34.721h-0.636
							c-34.721,2.383-34.721-15.545-34.721-34.721v-0.566c0-19.176,15.545-34.721,34.721-34.721h0.636
							c19.177,0,34.724,15.545,34.724,34.721V151.629z"/>
						<path style="fill-rule:evenodd;clip-rule:evenodd;fill:#E2E2E2;" d="M143.079,151.788c0,19.079,7.873,34.389-25.977,35.878
							l0,0c-33.986,2-25.977-16.799-25.977-35.878v-0.563c0-19.077,11.524-34.542,25.74-34.542h0.471
							c14.218,0,25.743,15.465,25.743,34.542V151.788z"/>
					</g>
					<g>
						<g>
							<path style="fill-rule:evenodd;clip-rule:evenodd;fill:#9D9D9D;" d="M104.081,165.33c4.614,7.734,4.903,20.135-2.177,24.357
								c-7.079,4.225-18.849-1.328-23.463-9.061c-4.614-7.735-6.349-14.237,4.465-21.653
								C92.07,152.689,99.466,157.596,104.081,165.33z"/>
							<path style="fill-rule:evenodd;clip-rule:evenodd;fill:#8C8B88;" d="M104.979,167.004c4.172,6.993,3.931,18.506-3.148,22.729
								c-7.08,4.223-18.319-0.439-22.491-7.434c-4.173-6.992-5.588-12.963,5.265-20.311
								C93.803,155.762,100.805,160.01,104.979,167.004z"/>
						</g>
						<g>
							<path style="fill-rule:evenodd;clip-rule:evenodd;fill:#9D9D9D;" d="M130.279,165.33c-4.614,7.734-4.903,20.135,2.177,24.357
								c7.079,4.225,18.849-1.328,23.463-9.061c4.614-7.735,6.349-14.237-4.465-21.653
								C142.29,152.689,134.895,157.596,130.279,165.33z"/>
							<path style="fill-rule:evenodd;clip-rule:evenodd;fill:#8C8B88;" d="M129.382,167.004
								c-4.172,6.993-3.931,18.506,3.149,22.729c7.08,4.223,18.319-0.439,22.491-7.434c4.173-6.992,5.588-12.963-5.265-20.311
								C140.558,155.762,133.556,160.01,129.382,167.004z"/>
						</g>
					</g>
				</g>
				<g>
					<g>
						<g>
							<path style="fill-rule:evenodd;clip-rule:evenodd;fill:#9D9D9D;" d="M172.044,91.176c0,11.52-9.339,20.857-20.857,20.857
								c-11.518,0-20.856-9.338-20.856-20.857c0-11.519,9.338-20.856,20.856-20.856C162.705,70.319,172.044,79.657,172.044,91.176z"
								/>
							<g>
								<path style="fill-rule:evenodd;clip-rule:evenodd;fill:#9D9D9D;" d="M99.443,91.176c0,11.52-9.338,20.857-20.857,20.857
									c-11.518,0-20.855-9.338-20.855-20.857c0-11.519,9.338-20.856,20.855-20.856C90.105,70.319,99.443,79.657,99.443,91.176z"/>
								<path style="fill-rule:evenodd;clip-rule:evenodd;fill:#E2E2E2;" d="M95.188,98.521c0,8.17-7.005,14.791-15.644,14.791
									c-8.641,0-15.645-6.621-15.645-14.791c0-8.168,7.004-14.79,15.645-14.79C88.184,83.732,95.188,90.354,95.188,98.521z"/>
							</g>
							<path style="fill-rule:evenodd;clip-rule:evenodd;fill:#E2E2E2;" d="M166.596,98.521c0,8.17-7.004,14.791-15.644,14.791
								c-8.64,0-15.644-6.621-15.644-14.791c0-8.168,7.004-14.79,15.644-14.79C159.592,83.732,166.596,90.354,166.596,98.521z"/>
						</g>
						<path style="fill-rule:evenodd;clip-rule:evenodd;fill:#9D9D9D;" d="M78.587,108.529c0-18.68,16.711-33.822,37.325-33.822
							c20.615,0,37.325,15.142,37.325,33.822s-9.247,33.822-37.325,33.822C85.936,142.352,78.587,127.209,78.587,108.529z"/>
					</g>
					<g>
						<g>
							<g>
								<path style="fill-rule:evenodd;clip-rule:evenodd;fill:#434849;" d="M100.973,110.201c0-2.25-1.825-4.074-4.074-4.074
									c-2.25,0-4.074,1.824-4.074,4.074s1.824,4.073,4.074,4.073C99.147,114.274,100.973,112.451,100.973,110.201z"/>
								<path style="fill-rule:evenodd;clip-rule:evenodd;fill:#FFFFFF;" d="M97.07,109.414c0-0.85,0.686-1.541,1.538-1.541
									s1.538,0.691,1.538,1.541c0,0.852-0.686,1.542-1.538,1.542S97.07,110.266,97.07,109.414z"/>
							</g>
							<g>
								<path style="fill-rule:evenodd;clip-rule:evenodd;fill:#434849;" d="M138.479,110.201c0-2.25-1.825-4.074-4.074-4.074
									c-2.25,0-4.074,1.824-4.074,4.074s1.824,4.073,4.074,4.073C136.653,114.274,138.479,112.451,138.479,110.201z"/>
								<path style="fill-rule:evenodd;clip-rule:evenodd;fill:#FFFFFF;" d="M134.575,109.414c0-0.85,0.687-1.541,1.539-1.541
									c0.852,0,1.538,0.691,1.538,1.541c0,0.852-0.686,1.542-1.538,1.542C135.262,110.956,134.575,110.266,134.575,109.414z"/>
							</g>
						</g>
						<g>
							<path style="fill-rule:evenodd;clip-rule:evenodd;fill:#434849;" d="M122.975,125.77c0,3.12-2.529,5.649-5.65,5.649h-2.823
								c-3.121,0-5.65-2.529-5.65-5.649v-13.992c0-3.121,2.529-5.65,5.65-5.65h2.823c3.121,0,5.65,2.529,5.65,5.65V125.77z"/>
							<g>
								<path style="fill-rule:evenodd;clip-rule:evenodd;" d="M112.79,128.266c0-0.516,0.418-0.933,0.934-0.933
									c0.515,0,0.933,0.417,0.933,0.933c0,0.516-0.418,0.934-0.933,0.934C113.208,129.199,112.79,128.781,112.79,128.266z"/>
								<path style="fill-rule:evenodd;clip-rule:evenodd;" d="M117.102,128.266c0-0.516,0.419-0.933,0.934-0.933
									c0.516,0,0.934,0.417,0.934,0.933c0,0.516-0.418,0.934-0.934,0.934C117.521,129.199,117.102,128.781,117.102,128.266z"/>
							</g>
						</g>
					</g>
				</g>
			</g>
			<g>
				<g>
					<g>
						<path style="fill-rule:evenodd;clip-rule:evenodd;fill:#CC4428;" d="M522.368,585.992c2.753-4.492,8.627-5.903,13.118-3.149
							c4.492,2.753,5.902,8.625,3.15,13.118"/>
						<path style="fill-rule:evenodd;clip-rule:evenodd;fill:#CC4428;" d="M516.464,602.727c3.721-3.731,9.761-3.739,13.491-0.02
							c3.73,3.722,3.738,9.761,0.018,13.492"/>
						<path style="fill-rule:evenodd;clip-rule:evenodd;fill:#CC4428;" d="M503.661,613.725c4.731-2.316,10.445-0.359,12.763,4.373
							c2.317,4.732,0.358,10.445-4.372,12.763"/>
					</g>
					<g>
						<path style="fill-rule:evenodd;clip-rule:evenodd;fill:#CC4428;" d="M445.644,585.992c-2.753-4.492-8.626-5.903-13.118-3.149
							c-4.492,2.753-5.901,8.625-3.149,13.118"/>
						<path style="fill-rule:evenodd;clip-rule:evenodd;fill:#CC4428;" d="M453.101,602.727c-3.72-3.731-9.761-3.739-13.491-0.02
							c-3.73,3.722-3.738,9.761-0.018,13.492"/>
						<path style="fill-rule:evenodd;clip-rule:evenodd;fill:#CC4428;" d="M465.903,613.725c-4.731-2.316-10.445-0.359-12.763,4.373
							c-2.316,4.732-0.358,10.445,4.373,12.763"/>
					</g>
				</g>
				<g>
					<g>
						<path style="fill-rule:evenodd;clip-rule:evenodd;fill:#CC4428;" d="M531.06,555.94l-11.817,17.458
							c-1.598,2.429-3.709,1.17-5.75-0.176l0,0c-2.042-1.345,2.372-10.309,3.972-12.737l6.2-9.414"/>
						<path style="fill-rule:evenodd;clip-rule:evenodd;fill:#E4552C;" d="M548.344,533.74c5.275,5.956,4.724,15.061-1.231,20.335
							c-5.957,5.275-15.061,4.722-20.336-1.232"/>
						<path style="fill-rule:evenodd;clip-rule:evenodd;fill:#E4552C;" d="M544.615,523.265c-8.301-4.982-19.068-2.294-24.052,6.008
							c-4.982,8.3-2.291,19.066,6.009,24.05"/>
					</g>
					<g>
						<path style="fill-rule:evenodd;clip-rule:evenodd;fill:#CC4428;" d="M436.478,555.94l11.816,17.458
							c1.6,2.429,3.709,1.17,5.751-0.176l0,0c2.042-1.345-2.373-10.309-3.971-12.737l-6.201-9.414"/>
						<path style="fill-rule:evenodd;clip-rule:evenodd;fill:#E4552C;" d="M419.195,533.74c-5.276,5.956-4.725,15.061,1.229,20.335
							c5.957,5.275,15.06,4.722,20.336-1.232"/>
						<path style="fill-rule:evenodd;clip-rule:evenodd;fill:#E4552C;" d="M422.923,523.265c8.302-4.982,19.069-2.294,24.051,6.008
							c4.983,8.3,2.291,19.066-6.008,24.05"/>
					</g>
				</g>
				<g>
					<path style="fill-rule:evenodd;clip-rule:evenodd;fill:#E4552C;" d="M515.921,556.097c5.444,6.944,8.69,15.693,8.69,25.201
						c0,22.573-18.299,40.874-40.873,40.874c-22.574,0-40.874-18.301-40.874-40.874c0-9.91,3.526-18.997,9.393-26.072"/>
					<path style="fill-rule:evenodd;clip-rule:evenodd;fill:#E4552C;" d="M473.398,564.056c0,2.508-2.034,4.543-4.543,4.543h-1.328
						c-2.508,0-4.541-2.035-4.541-4.543v-17.661c0-2.509,2.033-4.541,4.541-4.541h1.328c2.509,0,4.543,2.032,4.543,4.541V564.056z"
						/>
					<path style="fill-rule:evenodd;clip-rule:evenodd;fill:#E4552C;" d="M505.408,564.056c0,2.508-2.032,4.543-4.541,4.543h-1.328
						c-2.508,0-4.541-2.035-4.541-4.543v-17.661c0-2.509,2.033-4.541,4.541-4.541h1.328c2.509,0,4.541,2.032,4.541,4.541V564.056z"
						/>
					<g>
						<g>
							<path style="fill-rule:evenodd;clip-rule:evenodd;fill:#434849;" d="M496.689,547.567c0-1.939,1.574-3.515,3.515-3.515
								s3.514,1.575,3.514,3.515c0,1.94-1.573,3.515-3.514,3.515S496.689,549.508,496.689,547.567z"/>
							<path style="fill-rule:evenodd;clip-rule:evenodd;fill:#FFFFFF;" d="M500.204,546.891c0-0.735,0.592-1.331,1.326-1.331
								c0.735,0,1.328,0.596,1.328,1.331c0,0.731-0.593,1.328-1.328,1.328C500.796,548.219,500.204,547.622,500.204,546.891z"/>
						</g>
						<g>
							<path style="fill-rule:evenodd;clip-rule:evenodd;fill:#434849;" d="M464.678,547.567c0-1.939,1.574-3.515,3.515-3.515
								c1.94,0,3.514,1.575,3.514,3.515c0,1.94-1.573,3.515-3.514,3.515C466.252,551.082,464.678,549.508,464.678,547.567z"/>
							<path style="fill-rule:evenodd;clip-rule:evenodd;fill:#FFFFFF;" d="M468.192,546.891c0-0.735,0.593-1.331,1.326-1.331
								c0.736,0,1.328,0.596,1.328,1.331c0,0.731-0.592,1.328-1.328,1.328C468.785,548.219,468.192,547.622,468.192,546.891z"/>
						</g>
					</g>
				</g>
			</g>
			<g>
				<g>
					<g>
						<g>
							<g>
								<path style="fill:#3C3C3B;" d="M169.65,587.622c-1.093,1.397-4.252,5.477-2.815,11.726c0.634,2.754,1.352,4.397,1.907,5.635
									c0.578,1.236,2.143,3.635,3.492,4.799c1.099-1.4,1.462-1.586,2.606-3.439c0.709-1.156,1.35-2.964,1.223-4.244
									c-0.126-1.279-0.29-2.654-1.249-4.518C174.233,596.342,169.617,590.965,169.65,587.622z"/>
							</g>
						</g>
						<g>
							<g>
								<g>
									<path style="fill:#E2E2E2;" d="M173.651,608.925c0.178-0.715,0.303-1.472,0.37-2.273c0.131-1.581-1.044-2.969-2.624-3.1
										c-1.58-0.129-2.966,1.043-3.101,2.625c-0.783,9.36-16.933,9.07-17.098,9.065c-1.585-0.036-2.903,1.215-2.939,2.803
										c-0.039,1.586,1.216,2.902,2.802,2.94C151.9,621.005,170.585,621.301,173.651,608.925z"/>
								</g>
							</g>
						</g>
					</g>
					<path style="fill-rule:evenodd;clip-rule:evenodd;fill:#E2E2E2;" d="M153.744,594.583c0,21.273,0,38.756-38.519,38.518h-0.705
						c-38.519,2.643-38.519-17.244-38.519-38.518v-0.628c0-21.272,17.246-38.518,38.519-38.518h0.705
						c21.272,0,38.519,17.245,38.519,38.518V594.583z"/>
					<g>
						<g>
							<g>
								<path style="fill:#3C3C3B;" d="M153.165,603.052c-1.002,0.539-2.425,1.141-3,1.399c-1.987,0.89-4.03,1.499-6.083,1.877
									c-4.108,0.762-8.205,0.68-12.156,0.14c3.973-0.34,7.882-1.172,11.39-2.685c1.753-0.746,3.395-1.688,4.847-2.778
									c0.624-0.475,4.432-3.489,5.58-4.593c-0.009,4.533-0.004,4.503-0.087,6.358L153.165,603.052z"/>
							</g>
						</g>
						<g>
							<g>
								<path style="fill:#3C3C3B;" d="M152.022,615.226c-1.034,0.476-2.49,0.989-3.08,1.213c-2.037,0.767-4.114,1.251-6.186,1.502
									c-4.146,0.511-8.23,0.18-12.141-0.6c3.986-0.098,7.94-0.69,11.533-1.986c1.795-0.639,3.395-1.64,5.006-2.479
									c3.596-1.875,4.948-3.738,6.162-4.769c-0.009,2.01-0.548,4.065-0.68,4.563C152.588,612.85,152.073,615.046,152.022,615.226z
									"/>
							</g>
						</g>
						<g>
							<g>
								<g>
									<path style="fill:#3C3C3B;" d="M76.558,603.052c1.002,0.539,2.425,1.141,3,1.399c1.987,0.89,4.03,1.499,6.082,1.877
										c4.108,0.762,8.205,0.68,12.156,0.14c-3.973-0.34-7.882-1.172-11.39-2.685c-1.754-0.746-3.395-1.688-4.847-2.778
										c-0.624-0.475-4.432-3.489-5.58-4.593c0.009,4.533,0.004,4.503,0.087,6.358L76.558,603.052z"/>
								</g>
							</g>
							<g>
								<g>
									<path style="fill:#3C3C3B;" d="M77.62,615.383c1.034,0.476,2.571,0.832,3.161,1.056c2.037,0.767,4.114,1.251,6.186,1.502
										c4.146,0.511,8.23,0.18,12.141-0.6c-3.986-0.098-7.94-0.69-11.533-1.986c-1.795-0.639-3.395-1.64-5.006-2.479
										c-3.596-1.875-4.948-3.738-6.162-4.769c0.171,2.204,0.354,3.4,0.767,5.506C77.211,613.796,77.569,615.203,77.62,615.383z"
										/>
								</g>
							</g>
						</g>
					</g>
				</g>
				<g>
					<g>
						<path style="fill-rule:evenodd;clip-rule:evenodd;fill:#4D4D4D;" d="M110.755,526.969c-3.946-6.143,0-12.942,0-12.942
							s0.844,1.26,1.272,1.16c0,0,0.876-1.444,1.733-1.727c0,0-0.144,0.922,0,1.346c0,0,1.502-1.416,3.004-1.77v1.77
							c0,0,0.965-0.106,1.573-1.063v1.346c0,0,0.966-0.495,1.287-1.204c0,0,4.075,7.225,0,13.084"/>
						<g>
							<path style="fill-rule:evenodd;clip-rule:evenodd;fill:#4D4D4D;" d="M104.459,532.577c0,0-3.579-11.938-16.79-16.433
								c0,0-5.57,12.004-0.406,24.507"/>
							<path style="fill-rule:evenodd;clip-rule:evenodd;fill:#F4A3A6;" d="M103.381,535.341c0,0-2.774-9.253-13.015-12.738
								c0,0-4.318,9.306-0.315,18.998"/>
						</g>
						<g>
							<path style="fill-rule:evenodd;clip-rule:evenodd;fill:#4D4D4D;" d="M124.587,530.565c0,0,4.953-11.436,18.6-14.355
								c0,0,4.126,12.574-2.468,24.388"/>
							<path style="fill-rule:evenodd;clip-rule:evenodd;fill:#F4A3A6;" d="M125.333,533.435c0,0,3.839-8.863,14.418-11.126
								c0,0,3.199,9.747-1.912,18.905"/>
						</g>
					</g>
					<g>
						<defs>
							<path id="XMLID_3_" d="M81.731,558.858c0-19.893,16.943-36.312,33.141-36.312c15.548,0,31.279,15.509,33.387,35.283
								c2.1,19.705-5.424,41.933-33.387,41.933C82.603,599.763,81.731,578.751,81.731,558.858z"/>
						</defs>
						<use xlink:href="#XMLID_3_"  style="overflow:visible;fill-rule:evenodd;clip-rule:evenodd;fill:#EFEDEA;"/>
						<clipPath id="XMLID_00000106844242616560726530000001833344424943029427_">
							<use xlink:href="#XMLID_3_"  style="overflow:visible;"/>
						</clipPath>
					</g>
					<g>
						<g>
							<g>
								<g>
									<path style="fill-rule:evenodd;clip-rule:evenodd;fill:#434849;" d="M95.226,558.295c0-2.188,1.776-3.964,3.965-3.964
										c2.189,0,3.964,1.776,3.964,3.964c0,2.19-1.775,3.965-3.964,3.965C97.002,562.26,95.226,560.485,95.226,558.295z"/>
									<path style="fill-rule:evenodd;clip-rule:evenodd;fill:#FFFFFF;" d="M99.19,557.531c0-0.828,0.668-1.5,1.496-1.5
										c0.831,0,1.497,0.672,1.497,1.5c0,0.827-0.666,1.499-1.497,1.499C99.858,559.03,99.19,558.358,99.19,557.531z"/>
								</g>
								<g>
									<path style="fill-rule:evenodd;clip-rule:evenodd;fill:#434849;" d="M125.333,557.562c0-2.19,1.776-3.964,3.965-3.964
										c2.189,0,3.964,1.773,3.964,3.964c0,2.189-1.775,3.964-3.964,3.964C127.109,561.525,125.333,559.751,125.333,557.562z"/>
									<path style="fill-rule:evenodd;clip-rule:evenodd;fill:#FFFFFF;" d="M129.299,556.796c0-0.826,0.667-1.499,1.496-1.499
										c0.83,0,1.497,0.673,1.497,1.499c0,0.828-0.667,1.5-1.497,1.5C129.966,558.296,129.299,557.624,129.299,556.796z"/>
								</g>
							</g>
							<g>
								<path style="fill-rule:evenodd;clip-rule:evenodd;fill:#4D4D4D;" d="M142.835,584.025c0,8.691-15.241,16.441-24.803,16.441
									h-8.361c-9.562,0-23.216-7.75-23.216-16.441l0,0c0-8.692,7.752-15.737,17.314-15.737h21.753
									C135.083,568.288,142.835,575.333,142.835,584.025L142.835,584.025z"/>
								<g>
									<path style="fill-rule:evenodd;clip-rule:evenodd;fill:#333333;" d="M105.479,575.036c0-1.646,1.335-2.981,2.98-2.981
										c1.647,0,2.982,1.335,2.982,2.981c0,1.647-1.335,2.982-2.982,2.982C106.813,578.018,105.479,576.683,105.479,575.036z"/>
									<path style="fill-rule:evenodd;clip-rule:evenodd;fill:#333333;" d="M117.117,575.036c0-1.646,1.334-2.981,2.98-2.981
										c1.646,0,2.982,1.335,2.982,2.981c0,1.647-1.336,2.982-2.982,2.982C118.451,578.018,117.117,576.683,117.117,575.036z"/>
								</g>
							</g>
						</g>
						<g>
							<path style="fill-rule:evenodd;clip-rule:evenodd;fill:#333333;" d="M83.675,547.11l8.913,4.491l-10-0.265
								C82.588,551.337,82.701,549.706,83.675,547.11z"/>
							<path style="fill-rule:evenodd;clip-rule:evenodd;fill:#333333;" d="M81.788,557.076l9.407,0.559l-9.463,3.891
								C81.731,561.525,81.63,559.088,81.788,557.076z"/>
							<path style="fill-rule:evenodd;clip-rule:evenodd;fill:#333333;" d="M81.828,566.241l11.438-1.145l-11.152,6.068
								C82.114,571.165,81.767,568.882,81.828,566.241z"/>
							<path style="fill-rule:evenodd;clip-rule:evenodd;fill:#333333;" d="M145.68,547.11l-9.252,4.491l10.595-0.363
								C147.022,551.238,146.654,549.706,145.68,547.11z"/>
							<path style="fill-rule:evenodd;clip-rule:evenodd;fill:#333333;" d="M148.135,556.796l-10.315,0.839l10.692,3.398
								C148.512,561.033,148.589,559.261,148.135,556.796z"/>
							<path style="fill-rule:evenodd;clip-rule:evenodd;fill:#333333;" d="M148.548,566.114l-11.571-1.018l11.153,5.854
								C148.13,570.951,148.609,568.755,148.548,566.114z"/>
							<g>
								<g>
									<path style="fill:#3C3C3B;" d="M134.308,530.583c-1.27-1.07-2.798-2.624-4.321-3.271l-3.498,12.888L134.308,530.583z"/>
								</g>
							</g>
							<g>
								<g>
									<path style="fill:#3C3C3B;" d="M94.764,530.806l7.81,9.969l-3.383-13.304c-1.363,0.528-1.615,1.175-2.737,1.938
										C96.264,529.541,94.947,530.676,94.764,530.806z"/>
								</g>
							</g>
						</g>
					</g>
				</g>
			</g>
			<g>
				<g>
					<path style="fill-rule:evenodd;clip-rule:evenodd;fill:#898179;" d="M344.4,585.629c0,19.176,0,34.936-42.545,34.722h-0.777
						c-42.543,2.382-42.543-15.546-42.543-34.722v-0.566c0-19.176,19.047-34.721,42.543-34.721h0.777
						c23.496,0,42.545,15.545,42.545,34.721V585.629z"/>
					<g>
						<g>
							<path style="fill-rule:evenodd;clip-rule:evenodd;fill:#938B82;" d="M318.04,602.58c-4.614,7.734-4.903,20.135,2.177,24.357
								c7.079,4.226,18.849-1.328,23.463-9.06c4.614-7.736,6.349-14.238-4.465-21.654C330.05,589.94,322.655,594.846,318.04,602.58z
								"/>
							<path style="fill-rule:evenodd;clip-rule:evenodd;fill:#7A7169;" d="M317.142,604.254
								c-4.172,6.994-3.931,18.506,3.148,22.729c7.08,4.224,18.319-0.439,22.491-7.434c4.173-6.992,5.588-12.963-5.265-20.311
								C328.318,593.012,321.316,597.26,317.142,604.254z"/>
						</g>
						<g>
							<path style="fill-rule:evenodd;clip-rule:evenodd;fill:#938B82;" d="M282.804,602.58c4.613,7.734,4.902,20.135-2.178,24.357
								c-7.078,4.226-18.848-1.328-23.463-9.06c-4.613-7.736-6.348-14.238,4.465-21.654
								C270.792,589.94,278.189,594.846,282.804,602.58z"/>
							<path style="fill-rule:evenodd;clip-rule:evenodd;fill:#7A7169;" d="M283.701,604.254c4.172,6.994,3.932,18.506-3.148,22.729
								c-7.08,4.224-18.318-0.439-22.49-7.434c-4.174-6.992-5.588-12.963,5.264-20.311
								C272.525,593.012,279.527,597.26,283.701,604.254z"/>
						</g>
					</g>
				</g>
				<g>
					<g>
						<g>
							<g>
								<g>
									<g>
										<path style="fill:#938B82;" d="M335.328,524.004c0,4.144-3.359,7.5-7.5,7.5c-4.142,0-7.5-3.356-7.5-7.5
											c0-4.142,3.358-7.498,7.5-7.498C331.968,516.506,335.328,519.862,335.328,524.004z"/>
									</g>
								</g>
								<g>
									<g>
										<path style="fill:#595048;" d="M332.151,524.004c0,2.389-1.936,4.325-4.323,4.325c-2.389,0-4.324-1.937-4.324-4.325
											c0-2.387,1.936-4.323,4.324-4.323C330.214,519.681,332.151,521.617,332.151,524.004z"/>
									</g>
								</g>
							</g>
						</g>
						<g>
							<g>
								<g>
									<g>
										<path style="fill:#938B82;" d="M281.828,524.004c0,4.144-3.359,7.5-7.5,7.5c-4.142,0-7.5-3.356-7.5-7.5
											c0-4.142,3.358-7.498,7.5-7.498C278.468,516.506,281.828,519.862,281.828,524.004z"/>
									</g>
								</g>
								<g>
									<g>
										<path style="fill:#595048;" d="M278.651,524.004c0,2.389-1.936,4.325-4.323,4.325c-2.389,0-4.324-1.937-4.324-4.325
											c0-2.387,1.936-4.323,4.324-4.323C276.714,519.681,278.651,521.617,278.651,524.004z"/>
									</g>
								</g>
							</g>
						</g>
					</g>
					<path style="fill-rule:evenodd;clip-rule:evenodd;fill:#938B82;" d="M263.863,547.543c0-18.904,16.467-34.23,36.777-34.23
						c20.313,0,36.777,15.325,36.777,34.23c0,18.905-16.465,34.23-36.777,34.23C280.33,581.773,263.863,566.448,263.863,547.543z"/>
					<g>
						<g>
							<g>
								<path style="fill-rule:evenodd;clip-rule:evenodd;fill:#434849;" d="M288.964,541.016c0-2.25-1.826-4.073-4.074-4.073
									c-2.25,0-4.074,1.823-4.074,4.073s1.824,4.074,4.074,4.074C287.138,545.09,288.964,543.266,288.964,541.016z"/>
								<path style="fill-rule:evenodd;clip-rule:evenodd;fill:#FFFFFF;" d="M285.062,540.231c0-0.851,0.686-1.541,1.537-1.541
									c0.854,0,1.539,0.69,1.539,1.541c0,0.851-0.686,1.541-1.539,1.541C285.748,541.771,285.062,541.081,285.062,540.231z"/>
							</g>
							<g>
								<path style="fill-rule:evenodd;clip-rule:evenodd;fill:#434849;" d="M320.466,541.016c0-2.25-1.826-4.073-4.074-4.073
									c-2.25,0-4.074,1.823-4.074,4.073s1.824,4.074,4.074,4.074C318.64,545.09,320.466,543.266,320.466,541.016z"/>
								<path style="fill-rule:evenodd;clip-rule:evenodd;fill:#FFFFFF;" d="M316.562,540.231c0-0.851,0.687-1.541,1.539-1.541
									c0.853,0,1.539,0.69,1.539,1.541c0,0.851-0.686,1.541-1.539,1.541C317.249,541.771,316.562,541.081,316.562,540.231z"/>
							</g>
						</g>
						<g>
							<path style="fill-rule:evenodd;clip-rule:evenodd;fill:#B7B1AB;" d="M335.328,566.19c0,10.64-9.989,19.264-22.311,19.264
								h-22.806c-12.321,0-22.31-8.624-22.31-19.264l0,0c0-10.639,9.988-19.264,22.31-19.264h22.806
								C325.338,546.926,335.328,555.551,335.328,566.19L335.328,566.19z"/>
							<path style="fill-rule:evenodd;clip-rule:evenodd;fill:#AFA7A0;" d="M268.228,569.46c0,0,33.953,12.079,66.938-0.952
								c0,0,0.402,14.405-20.264,16.945h-28.457C286.445,585.453,270.316,582.464,268.228,569.46z"/>
							<g>
								<path style="fill-rule:evenodd;clip-rule:evenodd;fill:#595048;" d="M288.859,558.217c0-1.646,1.334-2.981,2.98-2.981
									c1.646,0,2.982,1.335,2.982,2.981s-1.336,2.981-2.982,2.981C290.193,561.198,288.859,559.863,288.859,558.217z"/>
								<path style="fill-rule:evenodd;clip-rule:evenodd;fill:#595048;" d="M306.46,558.217c0-1.646,1.335-2.981,2.979-2.981
									c1.646,0,2.982,1.335,2.982,2.981s-1.336,2.981-2.982,2.981C307.794,561.198,306.46,559.863,306.46,558.217z"/>
								<path style="fill:#A3A3A3;" d="M313.058,556.568c0,0,0.111,0.139,0.306,0.381c0.107,0.114,0.188,0.284,0.28,0.491
									c0.046,0.103,0.096,0.214,0.148,0.33c0.024,0.123,0.051,0.252,0.078,0.387c0.077,0.27,0.053,0.57,0.053,0.891
									c-0.028,0.313-0.086,0.655-0.208,0.98c-0.13,0.325-0.272,0.66-0.503,0.951c-0.186,0.323-0.494,0.551-0.747,0.825
									c-0.346,0.214-0.56,0.426-0.942,0.566c-0.344,0.178-0.701,0.251-1.044,0.314c-0.343,0.056-0.689,0.046-1.003,0.013
									c-0.314-0.063-0.612-0.099-0.863-0.227c-0.127-0.054-0.248-0.104-0.363-0.153c-0.102-0.072-0.199-0.142-0.291-0.207
									c-0.182-0.127-0.334-0.241-0.43-0.372c-0.2-0.238-0.314-0.375-0.314-0.375s0.138,0.11,0.379,0.303
									c0.108,0.109,0.273,0.194,0.463,0.286c0.094,0.046,0.191,0.096,0.297,0.148c0.111,0.032,0.228,0.067,0.352,0.103
									c0.236,0.097,0.517,0.099,0.802,0.129c0.286,0.002,0.593-0.023,0.896-0.082c0.151-0.04,0.305-0.08,0.461-0.121
									c0.151-0.046,0.285-0.129,0.434-0.187c0.283-0.085,0.597-0.371,0.852-0.525c0.225-0.243,0.509-0.436,0.674-0.724
									c0.209-0.255,0.355-0.54,0.484-0.826c0.117-0.286,0.203-0.582,0.257-0.863c0.025-0.285,0.078-0.561,0.029-0.813
									c-0.011-0.127-0.022-0.249-0.032-0.365c-0.031-0.11-0.06-0.215-0.086-0.314c-0.051-0.201-0.103-0.382-0.191-0.513
									C313.14,556.726,313.058,556.568,313.058,556.568z"/>
								<path style="fill:#A3A3A3;" d="M288.406,556.568c0,0-0.081,0.157-0.224,0.434c-0.089,0.131-0.141,0.311-0.19,0.513
									c-0.027,0.099-0.057,0.203-0.086,0.314c-0.012,0.116-0.021,0.238-0.033,0.365c-0.049,0.252,0.004,0.527,0.029,0.813
									c0.053,0.281,0.14,0.577,0.257,0.863c0.128,0.286,0.276,0.571,0.484,0.826c0.165,0.287,0.449,0.48,0.674,0.724
									c0.255,0.154,0.568,0.44,0.853,0.525c0.147,0.058,0.281,0.141,0.434,0.187c0.155,0.041,0.309,0.081,0.459,0.121
									c0.304,0.058,0.611,0.084,0.896,0.082c0.285-0.03,0.565-0.032,0.803-0.129c0.122-0.036,0.24-0.071,0.352-0.103
									c0.103-0.053,0.203-0.103,0.295-0.148c0.19-0.092,0.355-0.177,0.463-0.286c0.242-0.192,0.381-0.303,0.381-0.303
									s-0.115,0.137-0.316,0.375c-0.094,0.131-0.246,0.245-0.43,0.372c-0.091,0.065-0.188,0.135-0.289,0.207
									c-0.116,0.049-0.238,0.1-0.365,0.153c-0.25,0.128-0.549,0.163-0.863,0.227c-0.313,0.033-0.659,0.043-1.002-0.013
									c-0.344-0.063-0.701-0.137-1.043-0.314c-0.383-0.141-0.598-0.352-0.943-0.566c-0.254-0.274-0.56-0.502-0.746-0.825
									c-0.232-0.291-0.375-0.626-0.504-0.951c-0.121-0.325-0.18-0.667-0.208-0.98c0-0.32-0.024-0.62,0.054-0.891
									c0.027-0.135,0.053-0.264,0.078-0.387c0.052-0.116,0.102-0.227,0.149-0.33c0.09-0.207,0.172-0.377,0.279-0.491
									C288.295,556.707,288.406,556.568,288.406,556.568z"/>
							</g>
							<g>
								<path style="fill-rule:evenodd;clip-rule:evenodd;fill:#FFFFFF;" d="M295.181,580.081h-6.684v-6.305
									c0,0,2.633,0.306,3.467,0.354c1.463,0.085,3.217,0.248,3.217,0.248V580.081z"/>
								<path style="fill-rule:evenodd;clip-rule:evenodd;fill:#FFFFFF;" d="M307.716,580.081h6.684v-6.305
									c0,0-2.633,0.306-3.467,0.354c-1.461,0.085-3.217,0.248-3.217,0.248V580.081z"/>
							</g>
						</g>
					</g>
				</g>
			</g>
			<g>
				<g>
					<g>
						<g>
							<g>
								<g>
									<path style="fill:#945328;" d="M711.694,86.309c0,5.33-4.32,9.647-9.646,9.647c-5.328,0-9.649-4.317-9.649-9.647
										c0-5.327,4.32-9.645,9.649-9.645C707.374,76.664,711.694,80.982,711.694,86.309z"/>
								</g>
							</g>
							<g>
								<g>
									<path style="fill:#B57651;" d="M707.608,86.309c0,3.073-2.491,5.564-5.56,5.564c-3.073,0-5.563-2.492-5.563-5.564
										c0-3.069,2.489-5.561,5.563-5.561C705.117,80.748,707.608,83.239,707.608,86.309z"/>
								</g>
							</g>
						</g>
					</g>
					<g>
						<g>
							<g>
								<g>
									<path style="fill:#945328;" d="M634.244,86.308c0,5.33-4.32,9.647-9.646,9.647c-5.328,0-9.647-4.317-9.647-9.647
										c0-5.327,4.319-9.645,9.647-9.645C629.924,76.664,634.244,80.981,634.244,86.308z"/>
								</g>
							</g>
							<g>
								<g>
									<path style="fill:#B57651;" d="M630.159,86.308c0,3.073-2.491,5.564-5.562,5.564c-3.072,0-5.563-2.492-5.563-5.564
										c0-3.069,2.49-5.561,5.563-5.561C627.668,80.747,630.159,83.239,630.159,86.308z"/>
								</g>
							</g>
						</g>
					</g>
				</g>
				<polygon style="fill-rule:evenodd;clip-rule:evenodd;fill:#603813;" points="604.047,124.246 609.085,122.232 604.216,119.839 
					609.394,118.218 604.723,115.456 610.011,114.242 605.569,111.126 610.936,110.327 606.751,106.875 612.163,106.498 
					608.261,102.731 613.686,102.775 610.088,98.714 615.493,99.181 612.219,94.854 617.573,95.733 614.638,91.17 619.909,92.456 
					617.33,87.682 622.489,89.362 620.277,84.407 625.295,86.47 623.459,81.365 628.311,83.795 626.858,78.568 631.517,81.352 
					630.455,76.031 634.894,79.15 634.228,73.766 638.427,77.204 638.157,71.785 642.092,75.521 642.219,70.096 645.869,74.109 
					646.391,68.709 649.743,72.975 650.652,67.626 653.688,72.123 654.979,66.853 657.688,71.555 659.35,66.39 661.722,71.27 
					663.74,66.233 665.727,71.273 668.116,66.411 669.69,71.594 672.454,66.936 673.624,72.225 676.73,67.788 677.506,73.149 
					680.928,68.948 681.321,74.352 685.027,70.4 685.047,75.817 689.012,72.126 688.67,77.533 692.872,74.114 692.172,79.486 
					696.591,76.351 695.539,81.665 700.153,78.826 698.755,84.061 703.548,81.534 701.804,86.664 706.755,84.463 704.668,89.463 
					709.758,87.607 707.329,92.45 712.537,90.957 709.769,95.614 715.071,94.505 711.963,98.942 717.336,98.237 713.896,102.422 
					719.307,102.139 715.546,106.039 720.96,106.194 716.892,109.77 722.273,110.38 717.915,113.595 723.226,114.664 
					718.604,117.492 723.802,119.02 718.95,121.432 723.994,123.411 718.956,125.459 723.828,127.872 718.651,129.539 
					723.328,132.311 718.04,133.581 722.493,136.701 717.124,137.564 721.325,141.015 715.907,141.463 719.831,145.227 
					714.394,145.259 718.018,149.313 712.595,148.926 715.896,153.246 710.519,152.444 713.478,157.006 708.178,155.794 
					710.78,160.568 705.589,158.953 707.817,163.912 702.764,161.904 704.605,167.02 699.722,164.63 701.167,169.872 
					696.479,167.118 697.521,172.454 693.057,169.351 693.69,174.751 689.475,171.318 689.7,176.751 685.752,173.012 
					685.571,178.446 681.912,174.424 681.332,179.831 677.976,175.552 677.005,180.902 673.966,176.393 672.616,181.661 
					669.899,176.949 668.188,182.111 665.8,177.225 663.742,182.259 661.703,177.227 659.347,182.118 657.641,176.964 
					654.966,181.69 653.607,176.433 650.618,180.965 649.629,175.626 646.327,179.936 645.723,174.542 642.118,178.602 
					641.909,173.177 638.016,176.96 638.211,171.535 634.044,175.015 634.649,169.62 630.23,172.771 631.248,167.439 
					626.598,170.24 628.026,165.002 623.173,167.434 625.006,162.324 619.977,164.367 622.205,159.417 617.03,161.058 
					619.641,156.299 614.353,157.53 617.331,152.99 611.964,153.803 615.286,149.509 609.872,149.9 613.521,145.88 608.092,145.847 
					612.041,142.122 606.632,141.672 610.856,138.261 605.496,137.396 609.967,134.315 604.688,133.051 609.377,130.312 
					604.206,128.66 609.083,126.273 				"/>
				<path style="fill-rule:evenodd;clip-rule:evenodd;fill:#945328;" d="M635.596,175.446c-6.759-5.672-8.203-19.682-8.279-34.185
					c-0.084-16.28,2.065-33.181,10.322-39.61c15.612-12.155,27.072,3.038,27.072,3.038s11.461-15.193,27.073-3.038
					c8.702,6.776,10.362,23.454,10.259,39.61c-0.083,12.826-0.46,25.323-5.12,32.273
					C692.719,179.801,660.223,196.112,635.596,175.446z"/>
				<g>
					<g>
						<path style="fill-rule:evenodd;clip-rule:evenodd;fill:#824420;" d="M680.313,167.313c-4.649,4.76-6.997,13.617-2.639,17.872
							c4.354,4.257,13.768,2.299,18.416-2.46c4.65-4.76,7.018-9.131,0.53-16.325C691.121,160.305,684.962,162.553,680.313,167.313z"
							/>
						<path style="fill-rule:evenodd;clip-rule:evenodd;fill:#75391B;" d="M679.379,168.359c-4.203,4.304-6.018,12.616-1.66,16.871
							c4.357,4.255,13.234,2.845,17.438-1.458c4.204-4.303,6.25-8.348-0.276-15.498
							C689.347,162.213,683.584,164.056,679.379,168.359z"/>
					</g>
					<g>
						<path style="fill-rule:evenodd;clip-rule:evenodd;fill:#824420;" d="M649.297,167.313c4.65,4.76,6.997,13.617,2.64,17.872
							c-4.355,4.257-13.768,2.299-18.417-2.46c-4.65-4.76-7.018-9.131-0.529-16.325
							C638.487,160.305,644.647,162.553,649.297,167.313z"/>
						<path style="fill-rule:evenodd;clip-rule:evenodd;fill:#75391B;" d="M650.23,168.359c4.204,4.304,6.017,12.616,1.66,16.871
							c-4.356,4.255-13.234,2.845-17.438-1.458c-4.204-4.303-6.25-8.348,0.276-15.498
							C640.263,162.213,646.024,164.056,650.23,168.359z"/>
					</g>
				</g>
				<g>
					<g>
						<g>
							<path style="fill-rule:evenodd;clip-rule:evenodd;fill:#1A1A1A;" d="M645.643,121.328c0-1.944,1.577-3.521,3.521-3.521
								c1.943,0,3.521,1.577,3.521,3.521c0,1.944-1.577,3.521-3.521,3.521C647.22,124.848,645.643,123.272,645.643,121.328z"/>
							<path style="fill-rule:evenodd;clip-rule:evenodd;fill:#FFFFFF;" d="M649.164,120.648c0-0.735,0.592-1.332,1.329-1.332
								c0.736,0,1.33,0.598,1.33,1.332c0,0.735-0.594,1.332-1.33,1.332C649.756,121.98,649.164,121.383,649.164,120.648z"/>
						</g>
						<g>
							<path style="fill-rule:evenodd;clip-rule:evenodd;fill:#1A1A1A;" d="M674.129,121.328c0-1.944,1.577-3.521,3.521-3.521
								c1.943,0,3.521,1.577,3.521,3.521c0,1.944-1.577,3.521-3.521,3.521C675.706,124.848,674.129,123.272,674.129,121.328z"/>
							<path style="fill-rule:evenodd;clip-rule:evenodd;fill:#FFFFFF;" d="M677.65,120.648c0-0.735,0.592-1.332,1.328-1.332
								c0.737,0,1.33,0.598,1.33,1.332c0,0.735-0.593,1.332-1.33,1.332C678.242,121.98,677.65,121.383,677.65,120.648z"/>
						</g>
					</g>
					<g>
						<path style="fill-rule:evenodd;clip-rule:evenodd;fill:#A35E37;" d="M669.644,117.807c-4.092,3.388-2.25,16.624-2.25,16.624
							h-6.747c0,0,1.081-13.236-3.011-16.624H669.644z"/>
						<path style="fill-rule:evenodd;clip-rule:evenodd;fill:#1A1A1A;" d="M659.078,138.036c0-2.73,2.213-4.943,4.942-4.943
							c2.729,0,4.941,2.213,4.941,4.943c0,2.73-2.213,4.943-4.941,4.943C661.291,142.979,659.078,140.766,659.078,138.036z"/>
					</g>
				</g>
			</g>
			<g>
				<g>
					<path style="fill-rule:evenodd;clip-rule:evenodd;fill:#775236;" d="M339.145,144.534c0,21.701,0,39.536-39.294,39.292h-0.719
						c-39.294,2.696-39.294-17.591-39.294-39.292v-0.641c0-21.7,17.593-39.292,39.294-39.292h0.719
						c21.7,0,39.294,17.592,39.294,39.292V144.534z"/>
					<g>
						<g>
							<g>
								<path style="fill:#5E3B28;" d="M355.371,137.433c-1.116,1.425-4.337,5.587-2.872,11.961
									c0.646,2.809,1.379,4.486,1.945,5.748c0.59,1.261,2.187,3.708,3.563,4.895c1.122-1.427,1.491-1.618,2.659-3.507
									c0.724-1.18,1.377-3.024,1.249-4.33c-0.129-1.305-0.297-2.707-1.275-4.609C360.046,146.328,355.337,140.843,355.371,137.433
									z"/>
							</g>
						</g>
						<g>
							<g>
								<g>
									<path style="fill:#775236;" d="M359.452,159.164c0.183-0.729,0.31-1.501,0.378-2.318c0.133-1.613-1.064-3.029-2.678-3.163
										c-1.612-0.132-3.026,1.064-3.162,2.678c-0.799,9.549-17.274,9.253-17.442,9.248c-1.618-0.037-2.962,1.239-2.998,2.859
										c-0.04,1.618,1.241,2.961,2.858,3C337.264,171.487,356.323,171.789,359.452,159.164z"/>
								</g>
							</g>
						</g>
					</g>
				</g>
				<g>
					<g>
						<path style="fill:#333333;" d="M307.21,75.073c0,0,12.515-6.202,15.297-16.403c0,0,5.062,15.065-2.028,24.875
							C320.478,83.544,315.582,76.508,307.21,75.073z"/>
						<path style="fill:#333333;" d="M290.928,75.073c0,0-12.515-6.202-15.297-16.403c0,0-5.061,15.065,2.028,24.875
							C277.66,83.544,282.556,76.508,290.928,75.073z"/>
					</g>
					<g>
						<g>
							<defs>
								<path id="XMLID_4_" d="M265.683,108.09c0-20.292,17.052-35.008,33.576-35.008c15.861,0,32.139,13.787,34.291,33.959
									c2.142,20.101-5.533,42.776-34.06,42.776C266.573,149.817,265.683,128.383,265.683,108.09z"/>
							</defs>
							<use xlink:href="#XMLID_4_"  style="overflow:visible;fill-rule:evenodd;clip-rule:evenodd;fill:#856040;"/>
							<clipPath id="XMLID_00000080924569609762757240000003263923314860823953_">
								<use xlink:href="#XMLID_4_"  style="overflow:visible;"/>
							</clipPath>
						</g>
						<g>
							<g>
								<path style="fill:#775236;" d="M305.582,108.266c-0.54-18.882,14.565-25.756,15.707-26.468
									c4.654,3.938,5.546,5.179,8.393,10.114c0.685,1.186,1.958,6.827,1.977,6.964c0,0,1.212-1.94,1.89,3.847
									c0.646,5.51,1.107,10.228,0,16.646C333.276,119.472,306.145,127.982,305.582,108.266z"/>
							</g>
						</g>
						<path style="fill-rule:evenodd;clip-rule:evenodd;fill:#5E3B28;" d="M328.017,133.764c0,8.866-15.549,16.772-25.302,16.772
							h-8.529c-9.755,0-23.684-7.906-23.684-16.772l0,0c0-8.867,7.908-16.054,17.663-16.054h22.19
							C320.108,117.71,328.017,124.896,328.017,133.764L328.017,133.764z"/>
					</g>
					<g>
						<g>
							<g>
								<g>
									<path style="fill:#856040;" d="M321.29,81.798c0,0,21.667-2.51,24.792,9.241c3.125,11.753,4.172,15.697,4.172,15.697
										s-22.295,0.147-25.418-11.604C321.712,83.383,321.29,81.798,321.29,81.798z"/>
								</g>
							</g>
							<g>
								<g>
									<path style="fill:#E49788;" d="M326.422,86.216c0,0,13.99-1.618,16.005,5.966c2.017,7.585,2.694,10.133,2.694,10.133
										s-14.394,0.096-16.411-7.49C326.693,87.239,326.422,86.216,326.422,86.216z"/>
								</g>
							</g>
						</g>
						<g>
							<g>
								<g>
									<path style="fill:#856040;" d="M277.133,82.355c0,0-21.668-2.51-24.792,9.241c-3.124,11.753-4.172,15.696-4.172,15.696
										s22.295,0.147,25.418-11.604C276.711,83.94,277.133,82.355,277.133,82.355z"/>
								</g>
							</g>
							<g>
								<g>
									<path style="fill:#E49788;" d="M272.001,86.774c0,0-13.99-1.619-16.005,5.965c-2.017,7.586-2.694,10.134-2.694,10.134
										s14.394,0.095,16.411-7.491C271.73,87.797,272.001,86.774,272.001,86.774z"/>
								</g>
							</g>
						</g>
					</g>
					<g>
						<g>
							<g>
								<path style="fill-rule:evenodd;clip-rule:evenodd;fill:#1A1A1A;" d="M279.449,107.516c0-2.232,1.812-4.043,4.044-4.043
									c2.233,0,4.043,1.812,4.043,4.043c0,2.234-1.81,4.044-4.043,4.044C281.261,111.56,279.449,109.75,279.449,107.516z"/>
								<path style="fill-rule:evenodd;clip-rule:evenodd;fill:#FFFFFF;" d="M283.494,106.736c0-0.845,0.681-1.53,1.526-1.53
									c0.848,0,1.527,0.686,1.527,1.53c0,0.844-0.68,1.529-1.527,1.529C284.175,108.266,283.494,107.581,283.494,106.736z"/>
							</g>
							<g>
								<path style="fill-rule:evenodd;clip-rule:evenodd;fill:#1A1A1A;" d="M310.163,106.768c0-2.235,1.811-4.044,4.044-4.044
									s4.044,1.809,4.044,4.044c0,2.233-1.81,4.043-4.044,4.043S310.163,109.001,310.163,106.768z"/>
								<path style="fill-rule:evenodd;clip-rule:evenodd;fill:#FFFFFF;" d="M314.207,105.986c0-0.843,0.681-1.529,1.526-1.529
									c0.847,0,1.527,0.687,1.527,1.529c0,0.845-0.68,1.53-1.527,1.53C314.889,107.517,314.207,106.831,314.207,105.986z"/>
							</g>
						</g>
						<g>
							<g>
								<path style="fill-rule:evenodd;clip-rule:evenodd;fill:#1A1A1A;" d="M289.158,125.096c0-1.332,1.08-2.411,2.409-2.411
									c1.332,0,2.412,1.079,2.412,2.411c0,1.331-1.08,2.411-2.412,2.411C290.238,127.507,289.158,126.427,289.158,125.096z"/>
								<path style="fill-rule:evenodd;clip-rule:evenodd;fill:#1A1A1A;" d="M304.54,125.096c0-1.332,1.08-2.411,2.409-2.411
									c1.332,0,2.412,1.079,2.412,2.411c0,1.331-1.079,2.411-2.412,2.411C305.62,127.507,304.54,126.427,304.54,125.096z"/>
							</g>
							<g>
								<path style="fill:#BDBCBC;" d="M299.259,133.537c-4.655,0-8.441-3.787-8.441-8.441c0-0.414,0.336-0.75,0.75-0.75
									c0.414,0,0.75,0.336,0.75,0.75c0,3.827,3.114,6.941,6.941,6.941c3.828,0,6.942-3.114,6.942-6.941
									c0-0.414,0.336-0.75,0.75-0.75c0.414,0,0.75,0.336,0.75,0.75C307.701,129.751,303.914,133.537,299.259,133.537z"/>
							</g>
						</g>
					</g>
				</g>
			</g>
			<g>
				<g>
					<g>
						<path style="fill-rule:evenodd;clip-rule:evenodd;fill:#AE8661;" d="M517.157,366.537c0,19.176,0,34.936-34.725,34.721h-0.635
							c-34.721,2.383-34.721-15.545-34.721-34.721v-0.566c0-19.176,15.545-34.721,34.721-34.721h0.635
							c19.178,0,34.725,15.545,34.725,34.721V366.537z"/>
						<path style="fill-rule:evenodd;clip-rule:evenodd;fill:#E2D1C5;" d="M509.284,366.696c0,19.079,5.645,34.788-25.744,34.544
							h-0.471c-30.141,2.563-25.74-15.465-25.74-34.544v-0.563c0-19.077,11.525-34.542,25.74-34.542h0.471
							c14.219,0,25.744,15.465,25.744,34.542V366.696z"/>
					</g>
					<g>
						<g>
							<path style="fill-rule:evenodd;clip-rule:evenodd;fill:#A37C5B;" d="M472.595,381.211c4.039,6.769,4.291,17.621-1.904,21.316
								c-6.195,3.698-16.496-1.162-20.535-7.93c-4.037-6.77-5.556-12.46,3.908-18.95
								C462.083,370.148,468.556,374.442,472.595,381.211z"/>
							<path style="fill-rule:evenodd;clip-rule:evenodd;fill:#8E694D;" d="M473.38,382.676c3.651,6.12,3.44,16.196-2.755,19.891
								c-6.196,3.697-16.032-0.384-19.684-6.505c-3.652-6.12-4.891-11.345,4.607-17.775
								C463.6,372.837,469.727,376.555,473.38,382.676z"/>
						</g>
						<g>
							<path style="fill-rule:evenodd;clip-rule:evenodd;fill:#A37C5B;" d="M493.481,381.211
								c-4.039,6.769-4.291,17.621,1.904,21.316c6.195,3.698,16.496-1.162,20.535-7.93c4.037-6.77,5.556-12.46-3.908-18.95
								C503.993,370.148,497.52,374.442,493.481,381.211z"/>
							<path style="fill-rule:evenodd;clip-rule:evenodd;fill:#8E694D;" d="M492.696,382.676c-3.651,6.12-3.44,16.196,2.755,19.891
								c6.196,3.697,16.032-0.384,19.684-6.505c3.652-6.12,4.891-11.345-4.607-17.775
								C502.477,372.837,496.349,376.555,492.696,382.676z"/>
						</g>
					</g>
				</g>
				<g>
					<g>
						<g>
							<path style="fill-rule:evenodd;clip-rule:evenodd;fill:#B28B6B;" d="M525.958,302.853c0,5.03-4.078,9.107-9.107,9.107
								s-9.107-4.077-9.107-9.107c0-5.029,4.078-9.106,9.107-9.106S525.958,297.824,525.958,302.853z"/>
							<path style="fill-rule:evenodd;clip-rule:evenodd;fill:#8E694D;" d="M523.32,302.853c0,3.568-3.058,6.459-6.831,6.459
								c-3.771,0-6.83-2.891-6.83-6.459c0-3.566,3.059-6.457,6.83-6.457C520.263,296.396,523.32,299.288,523.32,302.853z"/>
						</g>
						<g>
							<path style="fill-rule:evenodd;clip-rule:evenodd;fill:#B28B6B;" d="M457.337,302.853c0,5.03-4.077,9.107-9.107,9.107
								c-5.029,0-9.105-4.077-9.105-9.107c0-5.029,4.076-9.106,9.105-9.106C453.26,293.747,457.337,297.824,457.337,302.853z"/>
							<path style="fill-rule:evenodd;clip-rule:evenodd;fill:#8E694D;" d="M454.7,302.853c0,3.568-3.059,6.459-6.831,6.459
								c-3.772,0-6.83-2.891-6.83-6.459c0-3.566,3.058-6.457,6.83-6.457C451.642,296.396,454.7,299.288,454.7,302.853z"/>
						</g>
					</g>
					<path style="fill-rule:evenodd;clip-rule:evenodd;fill:#B28B6B;" d="M444.792,323.438c0-18.68,16.711-33.822,37.324-33.822
						c20.615,0,37.326,15.142,37.326,33.822s-9.248,33.822-37.326,33.822C452.14,357.26,444.792,342.117,444.792,323.438z"/>
					<g>
						<g>
							<g>
								<path style="fill-rule:evenodd;clip-rule:evenodd;fill:#8E694D;" d="M472.159,306.253c0,0-4.76-7.357-14.698,2.303
									c-9.23,8.972-10.384,20.389-7.448,24.889c2.021,3.097,16.896,8.39,26.346-0.638
									C485.808,323.779,472.159,306.253,472.159,306.253z"/>
								<circle style="fill-rule:evenodd;clip-rule:evenodd;fill:#7F5C44;" cx="464.556" cy="322.896" r="11.628"/>
								<g>
									<path style="fill-rule:evenodd;clip-rule:evenodd;fill:#434849;" d="M473.405,322.897c0-4.887-3.965-8.85-8.85-8.85
										c-4.887,0-8.85,3.962-8.85,8.85s3.963,8.848,8.85,8.848C469.44,331.745,473.405,327.784,473.405,322.897z"/>
									<path style="fill-rule:evenodd;clip-rule:evenodd;fill:#D0D1D2;" d="M465.178,321.188c0-1.707,1.38-3.097,3.093-3.097
										c1.712,0,3.09,1.39,3.09,3.097c0,1.71-1.378,3.098-3.09,3.098C466.558,324.285,465.178,322.898,465.178,321.188z"/>
									<path style="fill-rule:evenodd;clip-rule:evenodd;fill:#D0D1D2;" d="M461.708,324.563c0-0.558,0.45-1.012,1.011-1.012
										c0.56,0,1.011,0.454,1.011,1.012c0,0.56-0.451,1.013-1.011,1.013C462.158,325.576,461.708,325.123,461.708,324.563z"/>
								</g>
							</g>
							<g>
								<path style="fill-rule:evenodd;clip-rule:evenodd;fill:#8E694D;" d="M492.278,306.253c0,0,4.697-7.292,14.698,2.303
									c9.874,9.472,9.513,20.722,6.536,24.722c-2.207,2.966-15.984,8.556-25.434-0.471
									C478.63,323.779,492.278,306.253,492.278,306.253z"/>
								<g>
									<path style="fill-rule:evenodd;clip-rule:evenodd;fill:#7F5C44;" d="M487.831,322.896c0-6.422,5.206-11.628,11.627-11.628
										c6.422,0,11.629,5.206,11.629,11.628c0,6.421-5.207,11.628-11.629,11.628C493.037,334.524,487.831,329.317,487.831,322.896
										z"/>
								</g>
								<g>
									<path style="fill-rule:evenodd;clip-rule:evenodd;fill:#434849;" d="M508.308,322.897c0-4.887-3.965-8.85-8.85-8.85
										c-4.887,0-8.85,3.962-8.85,8.85s3.963,8.848,8.85,8.848C504.343,331.745,508.308,327.784,508.308,322.897z"/>
									<path style="fill-rule:evenodd;clip-rule:evenodd;fill:#D0D1D2;" d="M500.08,321.188c0-1.707,1.38-3.097,3.093-3.097
										c1.712,0,3.09,1.39,3.09,3.097c0,1.71-1.378,3.098-3.09,3.098C501.46,324.285,500.08,322.898,500.08,321.188z"/>
									<path style="fill-rule:evenodd;clip-rule:evenodd;fill:#D0D1D2;" d="M496.61,324.563c0-0.558,0.45-1.012,1.011-1.012
										c0.56,0,1.011,0.454,1.011,1.012c0,0.56-0.451,1.013-1.011,1.013C497.06,325.576,496.61,325.123,496.61,324.563z"/>
								</g>
							</g>
						</g>
						<g>
							<path style="fill-rule:evenodd;clip-rule:evenodd;fill:#E2D1C5;" d="M484.747,333.222c0,1.826-1.133,3.306-2.528,3.306l0,0
								c-1.396,0-2.528-1.48-2.528-3.306V306.16c0-1.826,1.132-3.306,2.528-3.306l0,0c1.396,0,2.528,1.48,2.528,3.306V333.222z"/>
							<path style="fill-rule:evenodd;clip-rule:evenodd;fill:#E2D1C5;" d="M490.661,341.61c0,4.097-3.321,7.418-7.418,7.418h-2.254
								c-4.096,0-7.418-3.321-7.418-7.418l0,0c0-4.097,3.322-7.418,7.418-7.418h2.254
								C487.34,334.192,490.661,337.513,490.661,341.61L490.661,341.61z"/>
							<g>
								<path style="fill-rule:evenodd;clip-rule:evenodd;fill:#E49788;" d="M477.481,340.549c-0.714-0.837-0.397-1.521,0.702-1.521
									h7.657c1.1,0,1.416,0.685,0.702,1.522l-3.233,3.79c-0.714,0.837-1.882,0.837-2.596,0L477.481,340.549z"/>
							</g>
						</g>
					</g>
				</g>
			</g>
			<g>
				<g>
					<g>
						<path style="fill-rule:evenodd;clip-rule:evenodd;fill:#E7831E;" d="M492.811,181.663c0,0.818-0.664,1.482-1.483,1.482l0,0
							c-0.818,0-1.482-0.664-1.482-1.482v-9.222c0-0.819,0.664-1.483,1.482-1.483l0,0c0.819,0,1.483,0.664,1.483,1.483V181.663z"/>
						<path style="fill-rule:evenodd;clip-rule:evenodd;fill:#E7831E;" d="M499.109,177.607c0.602,0.555,0.64,1.492,0.084,2.095l0,0
							c-0.555,0.602-1.494,0.639-2.095,0.083l-6.775-6.256c-0.603-0.555-0.64-1.493-0.084-2.095l0,0
							c0.555-0.602,1.493-0.639,2.095-0.083L499.109,177.607z"/>
						<path style="fill-rule:evenodd;clip-rule:evenodd;fill:#E7831E;" d="M483.547,177.607c-0.602,0.555-0.64,1.492-0.083,2.095
							l0,0c0.555,0.602,1.493,0.639,2.095,0.083l6.775-6.256c0.602-0.555,0.64-1.493,0.084-2.095l0,0
							c-0.556-0.602-1.493-0.639-2.095-0.083L483.547,177.607z"/>
					</g>
					<g>
						<path style="fill-rule:evenodd;clip-rule:evenodd;fill:#E7831E;" d="M471.178,181.663c0,0.818-0.663,1.482-1.483,1.482l0,0
							c-0.818,0-1.482-0.664-1.482-1.482v-9.222c0-0.819,0.664-1.483,1.482-1.483l0,0c0.82,0,1.483,0.664,1.483,1.483V181.663z"/>
						<path style="fill-rule:evenodd;clip-rule:evenodd;fill:#E7831E;" d="M477.477,177.607c0.602,0.555,0.64,1.492,0.083,2.095l0,0
							c-0.555,0.602-1.493,0.639-2.095,0.083l-6.775-6.256c-0.603-0.555-0.64-1.493-0.084-2.095l0,0
							c0.556-0.602,1.493-0.639,2.095-0.083L477.477,177.607z"/>
						<path style="fill-rule:evenodd;clip-rule:evenodd;fill:#E7831E;" d="M461.913,177.607c-0.602,0.555-0.639,1.492-0.083,2.095
							l0,0c0.556,0.602,1.493,0.639,2.095,0.083l6.775-6.256c0.602-0.555,0.64-1.493,0.084-2.095l0,0
							c-0.555-0.602-1.493-0.639-2.095-0.083L461.913,177.607z"/>
					</g>
				</g>
				<g>
					<g>
						<path style="fill-rule:evenodd;clip-rule:evenodd;fill:#FDBD2C;" d="M513.004,141.21c0,17.674-14.327,32-32,32h-1.193
							c-17.673,0-32-14.326-32-32v-36.25c0-17.674,14.327-32,32-32h1.193c17.673,0,32,14.326,32,32V141.21z"/>
						<path style="fill-rule:evenodd;clip-rule:evenodd;fill:#FDBD2C;" d="M479.81,72.96c0,0,14.515,0.056,17.018-5.388
							c0,0,1.926,2.22,0,5.388c0,0,0.169,1.165,3.17,0c0,0,1.668,0.608-4.667,3.388"/>
						<path style="fill-rule:evenodd;clip-rule:evenodd;fill:#F4C778;" d="M500.264,153.354c0,10.966-8.89,19.856-19.857,19.856l0,0
							c-10.967,0-19.856-8.891-19.856-19.856v-6.476c0-10.967,8.89-19.857,19.856-19.857l0,0c10.967,0,19.857,8.891,19.857,19.857
							V153.354z"/>
					</g>
					<g>
						<path style="fill-rule:evenodd;clip-rule:evenodd;fill:#F2B02A;" d="M504.674,128.589l4.084,14.867
							c0.936,3.41,4.459,5.414,7.869,4.477l0,0c3.408-0.936,5.413-4.459,4.477-7.868c0,0-0.992-4.628-1.66-6.046
							C517.768,130.46,514.75,127.336,504.674,128.589z"/>
						<path style="fill-rule:evenodd;clip-rule:evenodd;fill:#F2B02A;" d="M456.14,128.589l-4.083,14.867
							c-0.936,3.41-4.459,5.414-7.868,4.477l0,0c-3.41-0.936-5.414-4.459-4.478-7.868c0,0,0.994-4.628,1.661-6.046
							C443.047,130.46,446.064,127.336,456.14,128.589z"/>
					</g>
				</g>
				<g>
					<g>
						<g>
							<path style="fill-rule:evenodd;clip-rule:evenodd;fill:#1A1A1A;" d="M461.95,107.664c0-2.188,1.777-3.965,3.965-3.965
								c2.189,0,3.965,1.777,3.965,3.965c0,2.189-1.775,3.965-3.965,3.965C463.727,111.628,461.95,109.853,461.95,107.664z"/>
							<path style="fill-rule:evenodd;clip-rule:evenodd;fill:#FFFFFF;" d="M465.915,106.9c0-0.828,0.668-1.5,1.496-1.5
								c0.832,0,1.498,0.672,1.498,1.5c0,0.826-0.666,1.498-1.498,1.498C466.583,108.398,465.915,107.726,465.915,106.9z"/>
						</g>
						<g>
							<path style="fill-rule:evenodd;clip-rule:evenodd;fill:#1A1A1A;" d="M490.935,107.664c0-2.188,1.777-3.965,3.965-3.965
								c2.19,0,3.964,1.777,3.964,3.965c0,2.189-1.774,3.965-3.964,3.965C492.712,111.628,490.935,109.853,490.935,107.664z"/>
							<path style="fill-rule:evenodd;clip-rule:evenodd;fill:#FFFFFF;" d="M494.899,106.9c0-0.828,0.668-1.5,1.496-1.5
								c0.832,0,1.497,0.672,1.497,1.5c0,0.826-0.665,1.498-1.497,1.498C495.567,108.398,494.899,107.726,494.899,106.9z"/>
						</g>
					</g>
					<polygon style="fill-rule:evenodd;clip-rule:evenodd;fill:#E7831E;" points="480.407,124.959 476.626,118.41 472.845,111.861 
						480.407,111.861 487.97,111.861 484.188,118.41 					"/>
				</g>
			</g>
			<g>
				<g>
					<g>
						<g>
							<g>
								<path style="fill:#D45136;" d="M314.608,371.046c9.878,8.14,22.859,2.689,30.54-5.806c0.601-0.664,1.281-1.26,1.999-1.828
									c3.252-0.153,6.785,0.214,9.682,1.828c0,0-5.193,3.922-7.167,8.226c0,0,5.823,1.186,10.396-1.694
									c0,0-0.574,6.88-5.447,12.828c-1.525,0.467-3.165,0.883-4.948,1.236c-30.029,5.917-38.67-11.149-38.67-11.149
									L314.608,371.046z"/>
							</g>
						</g>
						<g>
							<g>
								<path style="fill:#EAE8E5;" d="M349.663,373.466c1.974-4.304,7.167-8.226,7.167-8.226c-2.897-1.614-6.43-1.981-9.682-1.828
									c8.477-6.694,24.205-6.947,24.205-6.947s7.367,20.744-16.741,28.135c4.874-5.948,5.447-12.828,5.447-12.828
									C355.486,374.652,349.663,373.466,349.663,373.466z"/>
							</g>
						</g>
					</g>
					<path style="fill-rule:evenodd;clip-rule:evenodd;fill:#E76541;" d="M333.003,365.236c0,19.177,0,34.936-34.723,34.722h-0.635
						c-34.722,2.381-34.722-15.545-34.722-34.722v-0.566c0-19.176,15.545-34.721,34.722-34.721h0.635
						c19.176,0,34.723,15.545,34.723,34.721V365.236z"/>
				</g>
				<g>
					<g>
						<g>
							<path style="fill-rule:evenodd;clip-rule:evenodd;fill:#E76541;" d="M317.095,306.471c0,0,9.023-12.653,26.426-12.653
								c0,0,1.751,16.41-9.369,29.097"/>
							<path style="fill-rule:evenodd;clip-rule:evenodd;fill:#E49788;" d="M317.256,310.168c0,0,6.994-9.809,20.485-9.809
								c0,0,1.357,12.721-7.264,22.555"/>
						</g>
						<g>
							<path style="fill-rule:evenodd;clip-rule:evenodd;fill:#E76541;" d="M277.838,306.471c0,0-9.023-12.653-26.427-12.653
								c0,0-1.751,16.41,9.37,29.097"/>
							<path style="fill-rule:evenodd;clip-rule:evenodd;fill:#E49788;" d="M277.676,310.168c0,0-6.994-9.809-20.485-9.809
								c0,0-1.357,12.721,7.264,22.555"/>
						</g>
					</g>
					<g>
						<path style="fill-rule:evenodd;clip-rule:evenodd;fill:#E76541;" d="M297.96,299.424c0,0-36.619,0-45.561,46.228
							c0,0,34.206-6.913,45.562,10.813c9.225-15.88,45.56-10.813,45.56-10.813C334.58,299.424,297.96,299.424,297.96,299.424z"/>
						<path style="fill-rule:evenodd;clip-rule:evenodd;fill:#EAE8E5;" d="M272.239,309.459c0,0,5.353,2.384,13.23,13.881
							c8.368,12.214,6.463,27.1,6.463,27.1s-10.153-7.33-39.533-4.787C252.399,345.652,254.385,322.701,272.239,309.459z"/>
						<path style="fill-rule:evenodd;clip-rule:evenodd;fill:#EAE8E5;" d="M323.868,309.459c0,0-5.353,2.384-13.23,13.881
							c-8.368,12.214-6.464,27.1-6.464,27.1s10.153-7.33,39.534-4.787C343.708,345.652,341.722,322.701,323.868,309.459z"/>
					</g>
					<g>
						<g>
							<g>
								<path style="fill-rule:evenodd;clip-rule:evenodd;fill:#434849;" d="M320.927,328.684c0-2.116-1.716-3.832-3.832-3.832
									c-2.116,0-3.832,1.716-3.832,3.832c0,2.117,1.717,3.832,3.832,3.832C319.211,332.517,320.927,330.801,320.927,328.684z"/>
								<path style="fill-rule:evenodd;clip-rule:evenodd;fill:#FFFFFF;" d="M317.256,327.945c0-0.8,0.646-1.45,1.447-1.45
									c0.802,0,1.447,0.65,1.447,1.45c0,0.8-0.645,1.45-1.447,1.45C317.902,329.395,317.256,328.745,317.256,327.945z"/>
							</g>
							<g>
								<path style="fill-rule:evenodd;clip-rule:evenodd;fill:#434849;" d="M275.18,328.684c0-2.116,1.717-3.832,3.833-3.832
									c2.116,0,3.832,1.716,3.832,3.832c0,2.117-1.716,3.832-3.832,3.832C276.896,332.517,275.18,330.801,275.18,328.684z"/>
								<path style="fill-rule:evenodd;clip-rule:evenodd;fill:#FFFFFF;" d="M279.012,327.945c0-0.8,0.645-1.45,1.447-1.45
									c0.802,0,1.447,0.65,1.447,1.45c0,0.8-0.646,1.45-1.447,1.45C279.657,329.395,279.012,328.745,279.012,327.945z"/>
							</g>
						</g>
						<path style="fill-rule:evenodd;clip-rule:evenodd;fill:#434849;" d="M303.988,350.44c0,3.327-2.698,6.026-6.026,6.026
							c-3.33,0-6.028-2.699-6.028-6.026"/>
					</g>
				</g>
			</g>
		</g>
	</g>
</g>
</svg>
